<?xml version="1.0" encoding="UTF-8"?>
<svg version="1.1" xmlns="http://www.w3.org/2000/svg" width="512" height="512">
<path d="M0 0 C1.48497734 -0.0098568 1.48497734 -0.0098568 2.99995422 -0.01991272 C6.25054014 -0.03949418 9.50108017 -0.05127499 12.75170898 -0.0612793 C13.87087141 -0.06535482 14.99003384 -0.06943035 16.14311028 -0.07362938 C22.06838669 -0.09442672 27.99364039 -0.10875511 33.91894531 -0.11816406 C39.99871659 -0.1292088 46.07811995 -0.1636052 52.15776157 -0.20333576 C56.86877566 -0.22963579 61.57970382 -0.23786778 66.29078484 -0.24144554 C68.52999287 -0.24627772 70.76919796 -0.25779381 73.00833321 -0.27648354 C88.79615837 -0.40006367 103.77172567 0.22618174 117.99780273 7.92700195 C118.65530518 8.27061768 119.31280762 8.6142334 119.99023438 8.96826172 C139.49567853 19.42466573 152.92478075 35.54050137 160.68530273 56.17700195 C166.52629077 76.03636126 165.59486992 95.16368219 158.74780273 114.67700195 C158.36245361 115.80468994 157.97710449 116.93237793 157.58007812 118.09423828 C152.83392121 131.86571957 147.77341982 145.5289267 142.68530273 159.17700195 C144.00485962 159.54486816 144.00485962 159.54486816 145.35107422 159.92016602 C146.51195557 160.25757813 147.67283691 160.59499023 148.86889648 160.94262695 C150.01672607 161.27037109 151.16455566 161.59811523 152.34716797 161.93579102 C159.08028304 164.43934964 163.90398237 169.14872986 167.18530273 175.48950195 C170.45593159 183.52979789 171.24253217 192.75812283 168.81420898 201.20825195 C164.8483885 209.63399515 158.29397804 214.76937063 151.12280273 220.42700195 C150.52258301 220.90556641 149.92236328 221.38413086 149.30395508 221.87719727 C146.2821926 224.25797983 143.26603138 226.47889299 139.98217773 228.4855957 C129.70089765 235.06539398 126.64139305 243.03516331 123.04077148 254.45825195 C120.15140576 263.40010837 115.82191979 271.76036666 111.68530273 280.17700195 C112.60048172 280.16811951 113.51566071 280.15923706 114.45857239 280.15008545 C123.12290295 280.06962479 131.78710632 280.00887843 140.45172596 279.96975327 C144.90531793 279.94896171 149.35859876 279.9208002 153.81201172 279.87524414 C158.11737269 279.8314829 162.42243616 279.80780159 166.72800255 279.79749298 C168.36290857 279.79015552 169.99780005 279.77582847 171.6325779 279.75408173 C185.4018452 279.57835611 196.36645529 281.32630638 206.68530273 291.17700195 C218.35329113 303.39950861 218.22591856 316.41490227 217.93530273 332.36450195 C217.9152039 334.28961355 217.89695913 336.21474544 217.88061523 338.13989258 C217.83689487 342.81943699 217.76805511 347.49799168 217.68530273 352.17700195 C218.29334244 352.37099579 218.90138214 352.56498962 219.52784729 352.76486206 C220.33076706 353.02574615 221.13368683 353.28663025 221.9609375 353.55541992 C222.7546022 353.81128876 223.54826691 354.06715759 224.36598206 354.33078003 C234.39650836 357.99049442 243.15743061 365.86006845 250.68530273 373.17700195 C251.36979492 373.79961914 252.05428711 374.42223633 252.75952148 375.0637207 C269.34415736 390.60570756 280.45141142 414.77699427 281.88845825 437.37113953 C281.98008679 440.84804741 282.0147859 444.319986 282.02124023 447.7980957 C282.02789703 449.06041519 282.03455383 450.32273468 282.04141235 451.62330627 C282.05147751 454.2714773 282.05710338 456.91923645 282.0559082 459.56738281 C282.05570327 462.95580387 282.08322911 466.34340254 282.11745262 469.73162746 C282.14501131 472.98291947 282.14386714 476.23420269 282.14624023 479.4855957 C282.16779678 481.30588539 282.16779678 481.30588539 282.18978882 483.16294861 C282.18363556 484.28834549 282.1774823 485.41374237 282.17114258 486.57324219 C282.17399261 487.56154526 282.17684265 488.54984833 282.17977905 489.56809998 C281.51726673 493.06357517 280.5223708 494.03569177 277.68530273 496.17700195 C274.85431352 496.5689782 272.41295558 496.71472743 269.58300781 496.68036652 C268.75566446 496.68618028 267.92832111 496.69199404 267.07590675 496.69798398 C264.28525758 496.71265859 261.49547771 496.69866416 258.70483398 496.68493652 C256.69132536 496.68954249 254.67782009 496.69589335 252.6643219 496.7038455 C247.11702286 496.72060372 241.5699977 496.71226299 236.02269745 496.69990063 C230.04579272 496.69087896 224.06893627 496.7048055 218.09204102 496.71582031 C207.05530205 496.73261012 196.01863877 496.7311113 184.98189926 496.72017444 C174.78683294 496.71012097 164.59179878 496.70748131 154.39672852 496.71226501 C153.72104674 496.71257056 153.04536497 496.7128761 152.349208 496.71319089 C149.60654791 496.7144362 146.86388785 496.7157098 144.1212278 496.71702995 C118.38134248 496.72927204 92.64151306 496.71816246 66.90163636 496.69664236 C44.02220355 496.67765925 21.14285977 496.67935773 -1.73657227 496.69848633 C-27.42870958 496.7198946 -53.12079751 496.72840392 -78.8129425 496.71603727 C-81.55066934 496.71475436 -84.28839619 496.713503 -87.02612305 496.71226501 C-87.70024479 496.71194871 -88.37436653 496.7116324 -89.0689162 496.7113065 C-99.25876691 496.70675236 -109.44858196 496.7120856 -119.63842773 496.72218323 C-131.2221841 496.73360476 -142.8058557 496.73040793 -154.38960266 496.70906025 C-160.30396497 496.69852124 -166.2181462 496.69447649 -172.13250732 496.70765686 C-177.54085364 496.7195276 -182.94885006 496.71310637 -188.35716438 496.69174665 C-190.31941441 496.68725794 -192.28169367 496.68959726 -194.24392509 496.6992498 C-196.90051123 496.71132112 -199.55588098 496.69903396 -202.21240234 496.68036652 C-203.36930604 496.69441351 -203.36930604 496.69441351 -204.54958153 496.70874429 C-208.04492858 496.65926859 -209.96383818 496.44232435 -212.78934479 494.30565405 C-214.72923152 491.59851323 -214.8213673 489.99952303 -214.83227539 486.68432617 C-214.84488403 485.58152313 -214.85749268 484.47872009 -214.8704834 483.34249878 C-214.86238647 482.1509317 -214.85428955 480.95936462 -214.84594727 479.73168945 C-214.84977417 478.49266876 -214.85360107 477.25364807 -214.85754395 475.9770813 C-214.86026925 473.34540427 -214.85488441 470.71520625 -214.83618164 468.08374023 C-214.80930953 464.11578576 -214.83583516 460.14887718 -214.86157227 456.1809082 C-214.88098336 439.24536244 -214.02644578 423.14381642 -207.12719727 407.42700195 C-206.83312988 406.73856201 -206.5390625 406.05012207 -206.23608398 405.34082031 C-201.14699918 393.86991224 -194.0534634 384.16769648 -185.31469727 375.17700195 C-184.69208008 374.49250977 -184.06946289 373.80801758 -183.42797852 373.1027832 C-174.87230433 363.97314346 -163.80514932 357.02008505 -152.31469727 352.17700195 C-151.65469727 352.17700195 -150.99469727 352.17700195 -150.31469727 352.17700195 C-150.33564453 350.99259521 -150.3565918 349.80818848 -150.37817383 348.58789062 C-150.45118397 344.14677264 -150.4967165 339.70570647 -150.53442383 335.26416016 C-150.55440146 333.35065761 -150.58159325 331.43721503 -150.61645508 329.52392578 C-150.88332812 314.48876968 -150.21619485 302.59659051 -139.31469727 291.17700195 C-128.25234949 280.61653763 -116.4223725 279.59231718 -101.83422852 279.78637695 C-100.16843857 279.79385302 -98.50263972 279.79953948 -96.83683777 279.80352783 C-92.48838289 279.81867689 -88.14047687 279.85786355 -83.79223633 279.90234375 C-79.34081442 279.94353041 -74.88930236 279.96158841 -70.43774414 279.98168945 C-61.72981218 280.02437041 -53.02232332 280.09248841 -44.31469727 280.17700195 C-44.59864349 279.601073 -44.88258972 279.02514404 -45.17514038 278.4317627 C-54.67405914 259.07773688 -54.67405914 259.07773688 -57.22338867 250.16845703 C-60.6370258 238.29518952 -66.13364223 232.35363312 -76.2409668 225.58422852 C-79.56845939 223.32620317 -82.71915899 220.85153738 -85.87719727 218.36450195 C-86.74622681 217.68581055 -86.74622681 217.68581055 -87.6328125 216.9934082 C-94.36533491 211.66787203 -100.75438991 205.95373083 -102.31469727 197.17700195 C-103.28666463 186.21806986 -102.3461978 178.1860333 -95.62719727 169.42700195 C-90.14975409 163.47927325 -84.18634081 161.21384742 -76.31469727 160.17700195 C-76.58587372 159.64575211 -76.85705017 159.11450226 -77.13644409 158.56715393 C-79.97133916 153.00846995 -82.79181848 147.44264153 -85.60424805 141.87255859 C-86.6539942 139.79812182 -87.70733253 137.7254986 -88.7644043 135.65478516 C-90.28818582 132.66825953 -91.79868603 129.67532734 -93.30688477 126.6809082 C-93.77778534 125.76491348 -94.24868591 124.84891876 -94.7338562 123.90516663 C-99.82692992 113.72338757 -102.14173585 103.90264254 -98.81469727 92.80200195 C-96.98889642 86.52581154 -95.71799507 80.09319335 -98.26391602 73.84887695 C-103.80632314 64.40755251 -112.11296626 62.32145166 -122.03149414 59.17700195 C-123.03374023 58.84700195 -124.03598633 58.51700195 -125.06860352 58.17700195 C-125.97940674 57.88825195 -126.89020996 57.59950195 -127.82861328 57.30200195 C-131.49411375 55.6432937 -133.77029929 53.5561435 -135.25219727 49.80200195 C-135.34253854 46.0076686 -134.41668484 44.37483092 -132.31469727 41.17700195 C-129.29340911 38.87373012 -126.02931464 37.10162065 -122.68969727 35.30200195 C-121.74328369 34.77952881 -120.79687012 34.25705566 -119.82177734 33.71875 C-88.41032189 16.56336444 -54.8388428 5.69852834 -19.31469727 1.17700195 C-18.69108873 1.09495608 -18.0674802 1.01291021 -17.42497444 0.92837811 C-11.60071324 0.21383699 -5.86409341 0.0172331 0 0 Z M-22.62719727 18.86450195 C-23.75182373 19.03675293 -24.8764502 19.20900391 -26.03515625 19.38647461 C-53.64776014 23.82694522 -79.42410383 32.53097464 -104.31469727 45.17700195 C-101.99400887 47.75387024 -99.61457295 49.18234747 -96.56469727 50.80200195 C-88.56727041 55.54683101 -83.83226026 62.28512706 -80.97094727 71.09106445 C-79.07366441 80.01281119 -79.58579646 88.88049578 -82.75610352 97.41918945 C-84.52445965 106.14967498 -80.7889336 113.27787848 -76.93969727 120.92700195 C-76.44469727 121.94149414 -75.94969727 122.95598633 -75.43969727 124.0012207 C-73.22410434 128.50941913 -70.94175151 132.89252754 -68.31469727 137.17700195 C-64.90400634 135.91199099 -62.00903411 134.4625905 -59.00610352 132.41479492 C-58.18754883 131.86016571 -57.36899414 131.3055365 -56.52563477 130.73410034 C-55.65165039 130.13517975 -54.77766602 129.53625916 -53.87719727 128.91918945 C-52.96067383 128.29730743 -52.04415039 127.67542542 -51.09985352 127.03469849 C-48.16840131 125.04493423 -45.24124353 123.04897342 -42.31469727 121.05200195 C3.12685974 90.08948408 3.12685974 90.08948408 30.74780273 88.17700195 C52.66597638 86.64391823 67.54624761 78.17605234 84.11889648 64.30981445 C84.68495605 63.84800781 85.25101563 63.38620117 85.83422852 62.91040039 C87.40732704 61.62588025 88.96292326 60.32001186 90.51733398 59.01293945 C94.76910375 56.54890519 96.82695707 56.51874278 101.68530273 57.17700195 C105.36357509 60.20872285 107.85258713 64.13161153 110.45874023 68.07543945 C110.90496735 68.74684967 111.35119446 69.41825989 111.8109436 70.11001587 C112.75308763 71.53216934 113.69259996 72.95606933 114.62963867 74.3815918 C116.03780107 76.51786546 117.46255154 78.64236927 118.88842773 80.7668457 C126.14670097 91.70405051 131.90783624 102.69963856 135.06030273 115.55200195 C135.5359668 117.45079102 135.5359668 117.45079102 136.02124023 119.38793945 C136.34995117 120.76852539 136.34995117 120.76852539 136.68530273 122.17700195 C143.09467978 112.56293639 146.72641034 98.5771671 147.68530273 87.17700195 C147.75491211 86.45254883 147.82452148 85.7280957 147.89624023 84.98168945 C148.66454101 68.96557331 142.32900205 53.59461928 132.68530273 41.17700195 C132.22510742 40.55180664 131.76491211 39.92661133 131.29077148 39.2824707 C121.87607055 27.26312629 105.58554736 18.77609259 90.53050232 16.90989685 C82.36601757 16.08484383 74.23306655 16.03099553 66.03686523 16.04418945 C64.53347762 16.04351316 63.03009012 16.04254045 61.52670288 16.04129028 C58.38506015 16.03982406 55.24344602 16.04192997 52.10180664 16.04663086 C48.14068265 16.05227895 44.17962648 16.04897022 40.21850491 16.04320431 C8.69856354 15.81516037 8.69856354 15.81516037 -22.62719727 18.86450195 Z M87.93530273 82.67700195 C71.32166134 96.21086639 54.93778173 102.14937618 33.84301758 103.98852539 C19.72032368 105.22214382 7.5840647 107.80844235 -4.44750977 115.4855957 C-5.46676292 116.12953529 -5.46676292 116.12953529 -6.50660706 116.78648376 C-14.96236425 122.16799103 -23.26126049 127.78790394 -31.55664062 133.41210938 C-34.2987803 135.27108188 -37.0438246 137.12570447 -39.78930664 138.97973633 C-41.53621748 140.16113146 -43.2829686 141.34276281 -45.02954102 142.5246582 C-45.84913803 143.07871841 -46.66873505 143.63277863 -47.51316833 144.20362854 C-48.26227982 144.7118364 -49.0113913 145.22004425 -49.78320312 145.74365234 C-50.77337685 146.4145565 -50.77337685 146.4145565 -51.78355408 147.09901428 C-53.28674293 148.09200798 -53.28674293 148.09200798 -54.31469727 149.17700195 C-54.38696228 151.02987697 -54.39850946 152.88534073 -54.37719727 154.73950195 C-54.36817383 155.75141602 -54.35915039 156.76333008 -54.34985352 157.8059082 C-54.33825195 158.58836914 -54.32665039 159.37083008 -54.31469727 160.17700195 C-52.89648933 160.18580132 -52.89648933 160.18580132 -51.44963074 160.19477844 C-42.5471303 160.25194755 -33.64487551 160.3246784 -24.74262524 160.41271687 C-20.16567425 160.45747834 -15.58881347 160.49672155 -11.01171875 160.5234375 C-6.59601307 160.54941309 -2.18065345 160.58977422 2.23483849 160.64018822 C3.92092274 160.65689595 5.6070669 160.66838585 7.29322243 160.67461586 C9.65190691 160.6842148 12.00969823 160.7122218 14.36816406 160.74462891 C15.06803436 160.74319382 15.76790466 160.74175873 16.48898315 160.74028015 C19.32964253 160.79561984 21.24499234 160.86949062 23.61064148 162.52165222 C26.074936 166.31751744 25.45256835 171.84814237 25.68530273 176.17700195 C30.96530273 176.17700195 36.24530273 176.17700195 41.68530273 176.17700195 C41.78842773 174.25887695 41.89155273 172.34075195 41.99780273 170.36450195 C42.29842503 164.77292733 42.29842503 164.77292733 43.75996399 162.52165222 C46.65983379 160.49639266 49.58874148 160.73762909 53.00244141 160.74462891 C53.74415085 160.73443726 54.48586029 160.72424561 55.25004578 160.71374512 C57.70119725 160.68355533 60.15195833 160.67434032 62.60327148 160.6652832 C64.30293584 160.6484409 66.00258771 160.63029127 67.70222473 160.61088562 C72.17544655 160.56333053 76.64861773 160.53355694 81.12200928 160.50744629 C85.68682863 160.47766846 90.25147342 160.43112864 94.81616211 160.38598633 C103.77245111 160.29989062 112.72877598 160.2325733 121.68530273 160.17700195 C121.70731425 156.3593029 121.72048906 152.54162047 121.73217773 148.72387695 C121.73846191 147.65250488 121.74474609 146.58113281 121.7512207 145.47729492 C121.8049464 122.03498452 115.10336901 104.73032455 102.37280273 85.36450195 C101.84493164 84.55674316 101.31706055 83.74898438 100.77319336 82.91674805 C100.27368164 82.17118652 99.77416992 81.425625 99.25952148 80.6574707 C98.81181396 79.98611084 98.36410645 79.31475098 97.90283203 78.62304688 C97.50104736 78.14585205 97.0992627 77.66865723 96.68530273 77.17700195 C93.11313086 77.17700195 90.58292906 80.45559019 87.93530273 82.67700195 Z M-53.31469727 176.17700195 C-54.45519055 213.81328049 -41.53985489 247.1621165 -24.31469727 280.17700195 C13.96530273 280.17700195 52.24530273 280.17700195 91.68530273 280.17700195 C108.91046036 247.1621165 121.82579602 213.81328049 120.68530273 176.17700195 C115.73530273 176.17700195 110.78530273 176.17700195 105.68530273 176.17700195 C105.65952148 178.32200195 105.63374023 180.46700195 105.60717773 182.67700195 C105.56864805 184.77885466 105.52352374 186.88047101 105.4777832 188.98217773 C105.44974237 190.43095411 105.42844462 191.87987868 105.41430664 193.32885742 C105.31980245 202.47056311 105.22345327 209.91802662 98.93920898 217.20043945 C98.38104492 217.64645508 97.82288086 218.0924707 97.24780273 218.55200195 C96.6922168 219.01348633 96.13663086 219.4749707 95.56420898 219.95043945 C89.3834239 223.98529708 83.08482081 223.54931804 75.93017578 223.54760742 C73.88870987 223.55196798 71.84943193 223.58829061 69.80834961 223.6262207 C61.20392559 223.65171529 55.35075815 223.20298375 48.66186523 217.4309082 C48.21584961 216.87274414 47.76983398 216.31458008 47.31030273 215.73950195 C46.61807617 214.90612305 46.61807617 214.90612305 45.91186523 214.0559082 C42.85126069 209.3675299 42.31335815 204.85436522 42.06030273 199.36450195 C41.93655273 196.99262695 41.81280273 194.62075195 41.68530273 192.17700195 C36.40530273 192.17700195 31.12530273 192.17700195 25.68530273 192.17700195 C25.60280273 194.48700195 25.52030273 196.79700195 25.43530273 199.17700195 C24.95655413 207.46255641 23.44203329 212.89757362 17.24780273 218.55200195 C10.78684342 223.91864565 3.987828 223.54953394 -4.06982422 223.54760742 C-6.11129013 223.55196798 -8.15056807 223.58829061 -10.19165039 223.6262207 C-18.79607441 223.65171529 -24.64924185 223.20298375 -31.33813477 217.4309082 C-31.78415039 216.87274414 -32.23016602 216.31458008 -32.68969727 215.73950195 C-33.15118164 215.18391602 -33.61266602 214.62833008 -34.08813477 214.0559082 C-37.09601423 209.44829666 -37.59418816 205.35762063 -37.72875977 199.9074707 C-37.74812592 199.22646805 -37.76749207 198.54546539 -37.78744507 197.84382629 C-37.84687858 195.68417602 -37.89347926 193.52447138 -37.93969727 191.36450195 C-37.97791054 189.89377652 -38.0169642 188.42307266 -38.05688477 186.95239258 C-38.15412145 183.36071264 -38.23397276 179.76924228 -38.31469727 176.17700195 C-43.26469727 176.17700195 -48.21469727 176.17700195 -53.31469727 176.17700195 Z M-22.31469727 176.17700195 C-22.37657227 180.01325195 -22.43844727 183.84950195 -22.50219727 187.80200195 C-22.52950928 189.00034668 -22.55682129 190.19869141 -22.58496094 191.43334961 C-22.72575562 199.28090749 -22.72575562 199.28090749 -19.31469727 206.17700195 C-15.30455905 208.65742613 -10.97047517 208.51082636 -6.37719727 208.48950195 C-5.34175781 208.51367188 -5.34175781 208.51367188 -4.28540039 208.53833008 C0.44076726 208.54280986 3.77035416 207.85503682 7.68530273 205.17700195 C9.55813188 201.51233946 9.9242829 198.52164776 9.88061523 194.4387207 C9.87562012 193.47667725 9.870625 192.51463379 9.86547852 191.5234375 C9.84727051 190.31598877 9.8290625 189.10854004 9.81030273 187.86450195 C9.74842773 182.07918945 9.74842773 182.07918945 9.68530273 176.17700195 C-0.87469727 176.17700195 -11.43469727 176.17700195 -22.31469727 176.17700195 Z M57.68530273 176.17700195 C57.62342773 180.01325195 57.56155273 183.84950195 57.49780273 187.80200195 C57.47049072 189.00034668 57.44317871 190.19869141 57.41503906 191.43334961 C57.27424438 199.28090749 57.27424438 199.28090749 60.68530273 206.17700195 C64.69544095 208.65742613 69.02952483 208.51082636 73.62280273 208.48950195 C74.65824219 208.51367188 74.65824219 208.51367188 75.71459961 208.53833008 C80.44076726 208.54280986 83.77035416 207.85503682 87.68530273 205.17700195 C89.55813188 201.51233946 89.9242829 198.52164776 89.88061523 194.4387207 C89.87562012 193.47667725 89.870625 192.51463379 89.86547852 191.5234375 C89.84727051 190.31598877 89.8290625 189.10854004 89.81030273 187.86450195 C89.74842773 182.07918945 89.74842773 182.07918945 89.68530273 176.17700195 C79.12530273 176.17700195 68.56530273 176.17700195 57.68530273 176.17700195 Z M137.68530273 176.17700195 C137.62995361 176.92272461 137.57460449 177.66844727 137.51757812 178.43676758 C137.26304373 181.85033601 137.0054474 185.26366692 136.74780273 188.67700195 C136.66079102 189.85004883 136.5737793 191.0230957 136.48413086 192.23168945 C136.02845872 198.23981103 135.5054015 204.20727401 134.68530273 210.17700195 C138.52453273 207.98815133 141.93800168 205.51827006 145.37280273 202.73950195 C146.32541992 201.97766602 147.27803711 201.21583008 148.25952148 200.4309082 C151.163511 197.7326764 152.44694279 195.90743323 152.98608398 191.9934082 C153.01076159 187.24708229 152.89837974 183.94405776 149.68530273 180.17700195 C145.84823952 177.19261945 142.43241965 176.77874917 137.68530273 176.17700195 Z M-82.18969727 180.67700195 C-84.84699668 183.80323656 -85.4974891 185.4128756 -85.62719727 189.42700195 C-85.66458008 190.1746582 -85.70196289 190.92231445 -85.74047852 191.69262695 C-84.62304272 198.21271104 -79.59053823 201.89584073 -74.56469727 205.55200195 C-73.96270508 206.00188477 -73.36071289 206.45176758 -72.74047852 206.9152832 C-71.27159219 208.01111903 -69.79402215 209.09529908 -68.31469727 210.17700195 C-66.8178551 207.18331762 -67.68106965 204.89967894 -68.18969727 201.61450195 C-69.43360957 193.15903422 -69.91789268 184.70830051 -70.31469727 176.17700195 C-75.08931236 176.17700195 -78.61991325 177.57284194 -82.18969727 180.67700195 Z M-127.31469727 303.17700195 C-165.82182842 347.93909858 -134.31469727 421.13088062 -134.31469727 480.17700195 C-23.43469727 480.17700195 87.44530273 480.17700195 201.68530273 480.17700195 C217.97583979 384.06160556 217.97583979 384.06160556 194.68530273 303.17700195 C185.56433771 296.06574109 177.09407107 296.02754422 165.9704895 296.04328918 C164.79479554 296.04102363 163.61910158 296.03875807 162.40778053 296.03642386 C159.15730759 296.03120035 155.90686956 296.03043698 152.65639377 296.03161824 C149.14574207 296.03182277 145.63509855 296.0262985 142.12445068 296.02156067 C135.25160017 296.01326534 128.37875824 296.01050634 121.50590314 296.00994829 C115.91833111 296.00947265 110.3307619 296.00741553 104.74319077 296.00424767 C88.89292916 295.99544458 73.04267431 295.99082781 57.19241025 295.99157814 C56.33847785 295.9916181 55.48454546 295.99165805 54.60473633 295.99169922 C53.74975858 295.9917401 52.89478083 295.99178098 52.01389466 295.9918231 C38.15617538 295.9922296 24.29848326 295.98265819 10.44077183 295.96856085 C-3.79652141 295.9541919 -18.0338014 295.94729094 -32.27110207 295.94815463 C-40.26096566 295.94848639 -48.25080076 295.94574831 -56.24065781 295.93497658 C-63.04267689 295.92586481 -69.84465457 295.92370193 -76.64667712 295.930486 C-80.11512612 295.93374763 -83.58349569 295.93382082 -87.0519371 295.92513275 C-90.81666792 295.91742024 -94.58119044 295.92205298 -98.34591675 295.92976379 C-99.9803208 295.92204845 -99.9803208 295.92204845 -101.64774311 295.91417724 C-111.09706083 295.95691387 -119.91460115 296.8109804 -127.31469727 303.17700195 Z M-173.17016602 386.88012695 C-194.5615688 408.69505736 -198.54947306 435.61571605 -198.37719727 464.98950195 C-198.35657227 470.00137695 -198.33594727 475.01325195 -198.31469727 480.17700195 C-182.47469727 480.17700195 -166.63469727 480.17700195 -150.31469727 480.17700195 C-150.31469727 444.20700195 -150.31469727 408.23700195 -150.31469727 371.17700195 C-158.29503777 371.17700195 -167.64126107 381.4963506 -173.17016602 386.88012695 Z M217.68530273 371.17700195 C217.68530273 407.14700195 217.68530273 443.11700195 217.68530273 480.17700195 C233.52530273 480.17700195 249.36530273 480.17700195 265.68530273 480.17700195 C265.98641843 444.34423447 265.55494964 413.45704568 239.68530273 386.17700195 C233.741119 380.17267471 227.10711401 375.23679616 219.68530273 371.17700195 C219.02530273 371.17700195 218.36530273 371.17700195 217.68530273 371.17700195 Z " fill="#000000" transform="translate(222.314697265625,7.822998046875)"/>
<path d="M0 0 C8.34468007 4.97590182 13.53387008 11.86345977 16.109375 21.2578125 C17.10789012 32.35758522 16.45884702 41.9922991 9.359375 51.0703125 C3.70168013 57.1280464 -3.34488592 60.84888618 -11.625 61.59375 C-22.35447774 61.83515993 -31.19802606 60.58332943 -39.359375 52.9609375 C-46.75303791 44.73737365 -48.47252567 36.02335615 -48.203125 25.24609375 C-47.72879865 16.86039919 -44.11592977 9.8548755 -37.890625 4.2578125 C-27.15195714 -3.81766573 -12.32399863 -5.91386512 0 0 Z M-29.265625 20.8828125 C-31.46970393 25.46051489 -31.6877889 29.26333661 -30.890625 34.2578125 C-28.56093569 39.09639798 -25.72921048 41.92812319 -20.890625 44.2578125 C-15.89614911 45.0549764 -12.09332739 44.83689143 -7.515625 42.6328125 C-3.93154787 39.39007605 -1.29527259 36.79305354 -0.5078125 31.859375 C-0.25178581 26.17558256 -0.95435568 22.60842595 -4.890625 18.2578125 C-9.24123845 14.32154318 -12.80839506 13.61897331 -18.4921875 13.875 C-23.42586604 14.66246009 -26.02288855 17.29873537 -29.265625 20.8828125 Z " fill="#000000" transform="translate(271.890625,402.7421875)"/>
<path d="M0 0 C2.88959254 1.30906768 4.95569234 2.70665595 7.19213867 4.94921875 C7.78923141 5.54323486 8.38632416 6.13725098 9.00151062 6.74926758 C9.6339418 7.38888428 10.26637299 8.02850098 10.91796875 8.6875 C11.57581863 9.34580811 12.23366852 10.00411621 12.91145325 10.68237305 C14.29807992 12.07201594 15.68228022 13.46408362 17.06420898 14.85839844 C19.18485617 16.99733337 21.31342786 19.12812668 23.44335938 21.2578125 C24.789536 22.60890339 26.13525506 23.96045036 27.48046875 25.3125 C28.11897263 25.9521167 28.7574765 26.5917334 29.41532898 27.25073242 C30.00296524 27.84474854 30.5906015 28.43876465 31.19604492 29.05078125 C31.71470627 29.57325439 32.23336761 30.09572754 32.76774597 30.6340332 C35.25203277 33.38789174 35.53349855 36.16692304 35.44946289 39.82470703 C33.68120631 48.38264624 20.67810712 57.42833041 14.5625 63.5 C13.3415631 64.71591114 12.12085808 65.93205516 10.90039062 67.1484375 C7.93625987 70.10164966 4.96901042 73.05169398 2 76 C-1.63303084 74.30413874 -3.94549046 72.26199512 -6.75 69.375 C-7.54921875 68.55773437 -8.3484375 67.74046875 -9.171875 66.8984375 C-9.77515625 66.27195312 -10.3784375 65.64546875 -11 65 C-9.4152642 61.13671373 -6.94043113 58.71123077 -3.9921875 55.796875 C-3.50670441 55.3142218 -3.02122131 54.8315686 -2.52102661 54.33428955 C-0.97700134 52.80141438 0.57384824 51.27565996 2.125 49.75 C3.17624009 48.70879639 4.22702657 47.66713459 5.27734375 46.625 C7.84633004 44.07800536 10.42148161 41.53734823 13 39 C11.4152642 35.13671373 8.94043113 32.71123077 5.9921875 29.796875 C5.50670441 29.3142218 5.02122131 28.8315686 4.52102661 28.33428955 C2.97700134 26.80141438 1.42615176 25.27565996 -0.125 23.75 C-1.17624009 22.70879639 -2.22702657 21.66713459 -3.27734375 20.625 C-5.84633004 18.07800536 -8.42148161 15.53734823 -11 13 C-9.30413874 9.36696916 -7.26199512 7.05450954 -4.375 4.25 C-3.55773437 3.45078125 -2.74046875 2.6515625 -1.8984375 1.828125 C-0.95871094 0.92320312 -0.95871094 0.92320312 0 0 Z " fill="#000000" transform="translate(309,314)"/>
<path d="M0 0 C3.63303084 1.69586126 5.94549046 3.73800488 8.75 6.625 C9.54921875 7.44226563 10.3484375 8.25953125 11.171875 9.1015625 C11.77515625 9.72804688 12.3784375 10.35453125 13 11 C11.4152642 14.86328627 8.94043113 17.28876923 5.9921875 20.203125 C5.50670441 20.6857782 5.02122131 21.1684314 4.52102661 21.66571045 C2.97700134 23.19858562 1.42615176 24.72434004 -0.125 26.25 C-1.17624009 27.29120361 -2.22702657 28.33286541 -3.27734375 29.375 C-5.84633004 31.92199464 -8.42148161 34.46265177 -11 37 C-9.4152642 40.86328627 -6.94043113 43.28876923 -3.9921875 46.203125 C-3.50670441 46.6857782 -3.02122131 47.1684314 -2.52102661 47.66571045 C-0.97700134 49.19858562 0.57384824 50.72434004 2.125 52.25 C3.17624009 53.29120361 4.22702657 54.33286541 5.27734375 55.375 C7.84633004 57.92199464 10.42148161 60.46265177 13 63 C11.30413874 66.63303084 9.26199512 68.94549046 6.375 71.75 C5.55773437 72.54921875 4.74046875 73.3484375 3.8984375 74.171875 C3.27195313 74.77515625 2.64546875 75.3784375 2 76 C-0.88959254 74.69093232 -2.95569234 73.29334405 -5.19213867 71.05078125 C-5.78923141 70.45676514 -6.38632416 69.86274902 -7.00151062 69.25073242 C-7.6339418 68.61111572 -8.26637299 67.97149902 -8.91796875 67.3125 C-9.57581863 66.65419189 -10.23366852 65.99588379 -10.91145325 65.31762695 C-12.29807992 63.92798406 -13.68228022 62.53591638 -15.06420898 61.14160156 C-17.18485617 59.00266663 -19.31342786 56.87187332 -21.44335938 54.7421875 C-22.789536 53.39109661 -24.13525506 52.03954964 -25.48046875 50.6875 C-26.11897263 50.0478833 -26.7574765 49.4082666 -27.41532898 48.74926758 C-28.00296524 48.15525146 -28.5906015 47.56123535 -29.19604492 46.94921875 C-29.71470627 46.42674561 -30.23336761 45.90427246 -30.76774597 45.3659668 C-33.25203277 42.61210826 -33.53349855 39.83307696 -33.44946289 36.17529297 C-31.68120631 27.61735376 -18.67810712 18.57166959 -12.5625 12.5 C-11.3415631 11.28408886 -10.12085808 10.06794484 -8.90039062 8.8515625 C-5.93625987 5.89835034 -2.96901042 2.94830602 0 0 Z " fill="#000000" transform="translate(201,314)"/>
<path d="M0 0 C3.83663072 1.34929464 6.65172569 3.07751025 9.8125 5.625 C10.60269531 6.25664062 11.39289063 6.88828125 12.20703125 7.5390625 C12.79871094 8.02117187 13.39039063 8.50328125 14 9 C12.66558629 11.82749964 11.16230649 14.29610568 9.3046875 16.80859375 C8.49064453 17.91267578 8.49064453 17.91267578 7.66015625 19.0390625 C7.07105469 19.83054687 6.48195313 20.62203125 5.875 21.4375 C5.25753906 22.27152344 4.64007813 23.10554688 4.00390625 23.96484375 C-1.26880623 31.06557078 -6.62477818 38.10195884 -12.00927734 45.11816406 C-15.39037434 49.53358545 -18.72611831 53.9734281 -21.984375 58.48046875 C-22.61859375 59.35574219 -23.2528125 60.23101562 -23.90625 61.1328125 C-25.10625887 62.79553666 -26.29935532 64.4632788 -27.484375 66.13671875 C-28.020625 66.87921875 -28.556875 67.62171875 -29.109375 68.38671875 C-29.57311523 69.03858154 -30.03685547 69.69044434 -30.51464844 70.36206055 C-32 72 -32 72 -36 74 C-39.96 71.03 -43.92 68.06 -48 65 C-46.52688963 62.05377925 -45.22464911 59.78821467 -43.3046875 57.19140625 C-42.76199219 56.45535156 -42.21929687 55.71929687 -41.66015625 54.9609375 C-41.07105469 54.16945313 -40.48195312 53.37796875 -39.875 52.5625 C-38.94880859 51.31146484 -38.94880859 51.31146484 -38.00390625 50.03515625 C-32.73167723 42.9350803 -27.37167971 35.90305568 -21.99511719 28.88183594 C-16.68826475 21.93971741 -11.48670876 14.92473499 -6.33984375 7.86328125 C-5.79714844 7.12078125 -5.25445312 6.37828125 -4.6953125 5.61328125 C-4.22109863 4.96141846 -3.74688477 4.30955566 -3.25830078 3.63793945 C-2 2 -2 2 0 0 Z " fill="#000000" transform="translate(273,315)"/>
</svg>
