<?xml version="1.0" encoding="UTF-8"?>
<svg version="1.1" xmlns="http://www.w3.org/2000/svg" width="512" height="512">
<path d="M0 0 C1.85624168 -0.00417627 3.7124808 -0.00965539 5.56871521 -0.01631981 C10.6537137 -0.03075467 15.73854984 -0.02653579 20.82355714 -0.019153 C26.3137935 -0.0144188 31.80399486 -0.02693342 37.29421997 -0.03717041 C48.04390438 -0.05435878 58.79353033 -0.05519833 69.54322492 -0.04995751 C78.28144842 -0.04591464 87.01965467 -0.04736075 95.75787735 -0.05270576 C97.00197033 -0.05345419 98.24606332 -0.05420261 99.52785609 -0.05497371 C102.05530198 -0.0565052 104.58274786 -0.05804355 107.11019374 -0.05958868 C124.07752254 -0.06941597 141.04484425 -0.07358273 158.01217461 -0.06596279 C159.00686111 -0.06551703 159.00686111 -0.06551703 160.02164229 -0.06506227 C165.40626685 -0.06261347 170.79089133 -0.06000181 176.17551581 -0.05737813 C197.17629588 -0.04727679 218.17699598 -0.05563057 239.17776489 -0.07887268 C262.78760812 -0.10496022 286.39741519 -0.1177397 310.0072757 -0.11068493 C322.50260598 -0.10719242 334.9978706 -0.10942695 347.49319077 -0.12693596 C358.13016041 -0.14165624 368.76701816 -0.14229556 379.4039856 -0.12486505 C384.82927569 -0.11635133 390.25436587 -0.11421477 395.67964554 -0.1295166 C400.6502413 -0.14336227 405.62046587 -0.13860184 410.59104015 -0.11927737 C412.38501986 -0.11551672 414.17902929 -0.11844118 415.97298251 -0.12888902 C430.07090158 -0.20512784 442.1791329 1.06780538 452.79446411 11.38768005 C461.6854465 20.95493404 463.38876221 30.99666113 463.30912781 43.72090149 C463.31446091 45.15641749 463.32153097 46.59192791 463.33017486 48.02742779 C463.34872838 51.94953597 463.34252261 55.87126467 463.33202183 59.79338813 C463.32500894 64.03209665 463.34104362 68.27072885 463.35401917 72.50941467 C463.37563 80.80464874 463.37553968 89.09974546 463.36739362 97.39499842 C463.36108623 104.13952194 463.36223743 110.88400549 463.3686657 117.62852859 C463.36956735 118.58953473 463.37046901 119.55054087 463.37139798 120.54066841 C463.37324924 122.4931403 463.37511181 124.44561219 463.37698554 126.39808406 C463.39355406 144.6959499 463.3848531 162.99373857 463.36799996 181.29159977 C463.35330618 198.01829531 463.36792856 214.74481117 463.39677013 231.47148357 C463.42618926 248.66162634 463.43712892 265.85168624 463.42758793 283.04185307 C463.42656541 284.98763536 463.4255708 286.93341766 463.42460442 288.87919998 C463.42412803 289.83647193 463.42365164 290.79374388 463.42316081 291.78002407 C463.42099988 298.51217839 463.43078373 305.24425397 463.44537544 311.97639084 C463.46292389 320.18696746 463.46274552 328.39731512 463.44002379 336.60788284 C463.42890397 340.79377997 463.4256674 344.97927409 463.44432449 349.1651535 C463.46121154 353.00342621 463.45466851 356.84094698 463.43010771 360.6791717 C463.42296481 362.71181777 463.44018674 364.74450542 463.45851904 366.77708137 C463.33969772 378.54197537 460.15528164 387.94416212 451.89212036 396.4853363 C441.26085481 406.12672611 429.29915454 406.8355967 415.51272583 406.8200531 C413.88564821 406.82908371 412.25857738 406.8394141 410.6315155 406.85093689 C406.24173353 406.87838057 401.85208109 406.88777413 397.46222448 406.89379096 C392.86443347 406.90320769 388.26673796 406.92941364 383.66900635 406.95379639 C374.97473846 406.99737461 366.2804892 407.02597478 357.58614552 407.04911977 C347.68278199 407.07621808 337.77951495 407.12012666 327.87622046 407.16540849 C307.51568701 407.25813042 287.15512467 407.32986804 266.79446411 407.38768005 C267.99271461 411.65903649 269.20160391 415.92720055 270.41995239 420.19285583 C270.83198778 421.64093955 271.24122941 423.0898215 271.64749146 424.53953552 C276.48959947 442.32862113 276.48959947 442.32862113 289.32962036 454.8993988 C295.4686214 458.05479109 300.11073679 459.51077071 307.04421997 459.51365662 C308.94155128 459.51936676 308.94155128 459.51936676 310.87721252 459.52519226 C311.55037443 459.52538612 312.22353634 459.52557999 312.91709709 459.52577972 C315.75817794 459.52920895 318.59903272 459.55058502 321.44003391 459.57101059 C326.72446863 459.60896983 332.00865657 459.64029322 337.29324341 459.63816833 C340.97457488 459.63738062 344.65507044 459.66076363 348.33618355 459.70005035 C349.73592939 459.71049872 351.13577184 459.71204282 352.53553581 459.70439911 C354.49548282 459.69476174 356.45550723 459.7187547 358.41531372 459.74412537 C359.52909897 459.747771 360.64288422 459.75141663 361.79042053 459.75517273 C365.76312344 460.59163319 367.27582562 462.27254129 369.79446411 465.38768005 C370.41946411 468.38768005 370.41946411 468.38768005 369.79446411 471.38768005 C368.13477706 473.89341048 367.34008696 474.95035518 364.79446411 476.38768005 C360.61410111 477.14927313 356.46932979 477.06162299 352.23025513 477.02259827 C350.93910829 477.03039822 349.64796144 477.03819817 348.31768894 477.04623449 C344.73552047 477.06712017 341.15401744 477.05678547 337.57184649 477.0413034 C333.70808927 477.0300006 329.84444729 477.04744722 325.98071289 477.061203 C318.41234881 477.08345151 310.84423248 477.07862712 303.27585864 477.0641398 C297.12563717 477.05285387 290.9754852 477.05131385 284.82525635 477.05675888 C283.51291672 477.05790813 283.51291672 477.05790813 282.17406517 477.05908059 C280.39680948 477.0606792 278.6195538 477.06230026 276.84229815 477.06394355 C260.17179939 477.07820577 243.50143805 477.06180093 226.83096182 477.03494172 C212.52282866 477.01260249 198.21489831 477.01648249 183.9067688 477.03953552 C167.29646813 477.06628519 150.68628794 477.07683243 134.07596874 477.0614742 C132.30520314 477.05988144 130.53443752 477.05830958 128.76367188 477.05675888 C127.89239153 477.0559875 127.02111118 477.05521613 126.1234284 477.05442137 C119.97965612 477.05010187 113.83596017 477.05739631 107.69219971 477.06915665 C100.20628604 477.08317095 92.72063456 477.07940438 85.23475099 477.05275293 C81.41429732 477.03960012 77.59428098 477.03448677 73.77383041 477.05099869 C69.63506288 477.06861601 65.49740224 477.04760076 61.3586731 477.02259827 C59.54132581 477.03932868 59.54132581 477.03932868 57.68726444 477.05639708 C48.65177189 476.95003307 48.65177189 476.95003307 45.54826355 474.03549767 C43.79446411 471.38768005 43.79446411 471.38768005 43.16946411 468.38768005 C44.01180894 464.34442489 45.63302491 462.99102935 48.79446411 460.38768005 C51.76486206 459.76863098 51.76486206 459.76863098 55.0942688 459.77586365 C56.34617004 459.76590363 57.59807129 459.7559436 58.88790894 459.74568176 C60.24738637 459.75908828 61.60686308 459.77256873 62.96633911 459.78611755 C64.37254055 459.78061154 65.77873393 459.77248165 67.18490601 459.76185608 C70.88384318 459.73899487 74.58218907 459.74317462 78.28115845 459.75566101 C84.18612095 459.77397369 90.09073238 459.76377221 95.9956131 459.72980118 C98.04576232 459.72375203 100.09514428 459.73689084 102.14523315 459.75178528 C110.82830909 459.72668249 118.91977581 459.18765585 125.98196411 453.63768005 C126.86948364 452.96478943 126.86948364 452.96478943 127.77493286 452.27830505 C133.33430403 447.07378737 136.68341503 442.39695414 138.85696411 435.07518005 C139.07417114 434.39906677 139.29137817 433.72295349 139.51516724 433.02635193 C141.28419619 427.40855742 142.8218299 421.72234375 144.39382935 416.04710388 C144.62513298 415.2131736 144.85643661 414.37924332 145.09474945 413.52004242 C145.66164392 411.47601116 146.2280983 409.43185786 146.79446411 407.38768005 C145.53550764 407.38548021 145.53550764 407.38548021 144.25111771 407.38323593 C123.79272034 407.34612223 103.33448804 407.28704707 82.87622452 407.20377731 C72.98259472 407.16403302 63.08904394 407.13161715 53.19534302 407.11668396 C44.56812579 407.10364351 35.94108276 407.07661793 27.31396365 407.03306699 C22.74944188 407.01050589 18.18513453 406.99476615 13.62055206 406.9957962 C9.3161677 406.99654599 5.01225633 406.97846826 0.70799446 406.94651222 C-0.86402412 406.93805723 -2.43609603 406.93623308 -4.00812721 406.94187737 C-17.59349162 406.98412325 -29.14795676 405.16532656 -39.20553589 395.38768005 C-48.09651828 385.82042607 -49.79983399 375.77869898 -49.72019958 363.05445862 C-49.72553268 361.61894261 -49.73260275 360.1834322 -49.74124664 358.74793231 C-49.75980016 354.82582414 -49.75359438 350.90409544 -49.74309361 346.98197198 C-49.73608072 342.74326345 -49.7521154 338.50463125 -49.76509094 334.26594543 C-49.78670178 325.97071137 -49.78661146 317.67561464 -49.7784654 309.38036169 C-49.77215801 302.63583817 -49.77330921 295.89135462 -49.77973747 289.14683151 C-49.78063913 288.18582537 -49.78154078 287.22481924 -49.78246976 286.2346917 C-49.78432102 284.28221981 -49.78618358 282.32974792 -49.78805732 280.37727605 C-49.80462584 262.07941021 -49.79592487 243.78162154 -49.77907174 225.48376034 C-49.76437796 208.7570648 -49.77900034 192.03054894 -49.8078419 175.30387653 C-49.83726104 158.11373377 -49.84820069 140.92367386 -49.8386597 123.73350704 C-49.83763719 121.78772475 -49.83664258 119.84194244 -49.83567619 117.89616013 C-49.8351998 116.93888818 -49.83472341 115.98161622 -49.83423259 114.99533603 C-49.83207166 108.26318172 -49.84185551 101.53110613 -49.85644722 94.79896927 C-49.87399566 86.58839265 -49.8738173 78.37804499 -49.85109556 70.16747727 C-49.83997575 65.98158014 -49.83673918 61.79608602 -49.85539627 57.6102066 C-49.87228331 53.7719339 -49.86574028 49.93441313 -49.84117948 46.09618841 C-49.83403658 44.06354234 -49.85125852 42.03085469 -49.86959082 39.99827874 C-49.7507695 28.23338474 -46.56635342 18.83119799 -38.30319214 10.2900238 C-27.11166831 0.1405413 -14.37632464 -0.05263508 0 0 Z M-29.70553589 25.13768005 C-34.81230485 31.96649901 -34.49374722 41.28565883 -34.44604492 49.41650391 C-34.44775696 50.49150146 -34.44946899 51.56649902 -34.45123291 52.67407227 C-34.45453012 56.2695133 -34.44351761 59.86476595 -34.43258667 63.46018982 C-34.43197373 66.08451043 -34.43224145 68.70883136 -34.43331718 71.33315182 C-34.43437764 77.64089859 -34.42517095 83.94858811 -34.41231453 90.2563202 C-34.39788103 97.55722909 -34.39632319 104.85811817 -34.39474487 112.15904236 C-34.38425597 131.42276396 -34.35633361 150.68647287 -34.33053589 169.95018005 C-34.28928589 212.99455505 -34.24803589 256.03893005 -34.20553589 300.38768005 C124.85446411 300.38768005 283.91446411 300.38768005 447.79446411 300.38768005 C447.83571411 257.34330505 447.87696411 214.29893005 447.91946411 169.95018005 C447.93767212 156.3538739 447.95588013 142.75756775 447.97463989 128.74925232 C447.98132835 116.57206014 447.98132835 116.57206014 447.98535156 104.39486694 C447.98721644 98.96691133 447.994552 93.53899562 448.00561523 88.11105347 C448.01970607 81.18742997 448.02344674 74.26386396 448.02060866 67.34022701 C448.02120214 64.79922572 448.02516916 62.25822244 448.03289437 59.71723282 C448.04284856 56.28358478 448.04044156 52.85015706 448.03497314 49.41650391 C448.04371114 47.92711508 448.04371114 47.92711508 448.05262566 46.4076376 C448.01059209 36.58098572 446.91918292 28.54762498 439.79446411 21.38768005 C431.38860925 15.00763863 421.73589362 15.68449927 411.72732544 15.75276184 C409.88615302 15.74699583 408.04498636 15.73905149 406.20383167 15.72912562 C401.16047179 15.7082951 396.11758631 15.71855031 391.07422495 15.73405671 C385.62900012 15.74538177 380.18385616 15.72790175 374.73864746 15.7141571 C364.0778266 15.69193258 353.41718183 15.69672245 342.75635409 15.71122031 C334.09152199 15.7225156 325.42673921 15.72404218 316.76190186 15.71860123 C315.52833287 15.71783506 314.29476389 15.7170689 313.02381402 15.71627951 C310.51778466 15.71468088 308.01175531 15.71305981 305.50572598 15.71141656 C282.68040386 15.69756766 259.85516646 15.71192563 237.02986033 15.73812954 C216.20362217 15.7618567 195.37753688 15.75973353 174.55130005 15.73582458 C151.13995925 15.70903757 127.72869828 15.69853463 104.31734371 15.7138859 C101.82057128 15.71547864 99.32379883 15.71705049 96.82702637 15.71860123 C94.9843721 15.71975829 94.9843721 15.71975829 93.10449249 15.72093873 C84.45080532 15.72525452 75.79717242 15.71797176 67.14349365 15.70620346 C56.59646633 15.69217555 46.04962506 15.69598472 35.50261903 15.72260718 C30.12209856 15.73574125 24.74188821 15.74090445 19.36137009 15.72436142 C14.43396942 15.70944076 9.50716574 15.71768531 4.57981908 15.74424918 C2.79933872 15.74982513 1.01880773 15.74701363 -0.76163995 15.73487024 C-12.07445782 15.66364293 -21.80273207 16.03072465 -29.70553589 25.13768005 Z M-34.20553589 316.38768005 C-38.46502068 350.93667319 -38.46502068 350.93667319 -26.20553589 385.38768005 C-17.79968103 391.76772147 -8.14696539 391.09086084 1.86160278 391.02259827 C3.7027752 391.02836428 5.54394186 391.03630862 7.38509655 391.04623449 C12.42845643 391.06706501 17.47134192 391.0568098 22.51470327 391.0413034 C27.9599281 391.02997834 33.40507206 391.04745836 38.85028076 391.061203 C49.51110162 391.08342753 60.17174639 391.07863765 70.83257413 391.0641398 C79.49740623 391.0528445 88.16218901 391.05131793 96.82702637 391.05675888 C98.67737984 391.05790813 98.67737984 391.05790813 100.5651142 391.05908059 C103.07114356 391.06067923 105.57717291 391.0623003 108.08320224 391.06394355 C130.90852436 391.07779244 153.73376176 391.06343448 176.55906789 391.03723056 C197.38530605 391.0135034 218.21139134 391.01562658 239.03762817 391.03953552 C262.44896897 391.06632253 285.86022994 391.07682548 309.27158451 391.0614742 C311.76835695 391.05988147 314.26512939 391.05830962 316.76190186 391.05675888 C318.60455613 391.05560181 318.60455613 391.05560181 320.48443574 391.05442137 C329.1381229 391.05010558 337.79175581 391.05738835 346.44543457 391.06915665 C356.99246189 391.08318456 367.53930317 391.07937539 378.08630919 391.05275293 C383.46682966 391.03961886 388.84704001 391.03445566 394.22755814 391.05099869 C399.1549588 391.06591935 404.08176248 391.0576748 409.00910914 391.03111093 C410.7895895 391.02553498 412.5701205 391.02834648 414.35056818 391.04048987 C427.83349729 391.16588577 427.83349729 391.16588577 439.79446411 385.38768005 C456.3134337 368.78703718 447.79446411 333.0863092 447.79446411 316.38768005 C288.73446411 316.38768005 129.67446411 316.38768005 -34.20553589 316.38768005 Z M163.79446411 406.38768005 C160.16446411 419.25768005 156.53446411 432.12768005 152.79446411 445.38768005 C146.79446411 456.38768005 146.79446411 456.38768005 143.79446411 460.38768005 C185.37446411 460.38768005 226.95446411 460.38768005 269.79446411 460.38768005 C266.32946411 454.94268005 266.32946411 454.94268005 262.79446411 449.38768005 C257.01259608 435.73317922 253.74296943 420.48948476 249.79446411 406.38768005 C221.41446411 406.38768005 193.03446411 406.38768005 163.79446411 406.38768005 Z " fill="#000000" transform="translate(49.205535888671875,17.612319946289063)"/>
<path d="M0 0 C0.75305491 -0.00581376 1.50610981 -0.01162753 2.28198457 -0.01761746 C4.81995352 -0.03228248 7.35696516 -0.01830251 9.89492798 -0.00457001 C11.72694584 -0.00917636 13.55896002 -0.01552749 15.39096642 -0.02347898 C20.43660529 -0.04023189 25.48194293 -0.03189893 30.52758312 -0.01953411 C35.9646074 -0.01051027 41.40157867 -0.02444007 46.83859253 -0.0354538 C57.49419141 -0.05327216 68.14967781 -0.04938427 78.80528116 -0.03780323 C87.46267529 -0.02878221 96.12003782 -0.02753913 104.7774353 -0.0318985 C106.00799884 -0.03251143 107.23856238 -0.03312436 108.50641572 -0.03375587 C111.00601467 -0.03503473 113.50561361 -0.03633158 116.00521255 -0.03764623 C138.79362828 -0.04873611 161.58198978 -0.03722114 184.37039527 -0.01627585 C205.18215393 0.00270719 225.9938147 0.0010087 246.80557251 -0.01811981 C270.17725067 -0.0395293 293.54887768 -0.04796302 316.92056465 -0.03567076 C319.41114425 -0.03439651 321.90172385 -0.03313903 324.39230347 -0.0318985 C326.23058671 -0.03097285 326.23058671 -0.03097285 328.10600698 -0.03002849 C336.75642481 -0.02656984 345.40680799 -0.03241501 354.05722046 -0.04181671 C364.59429262 -0.05301681 375.13124553 -0.05003859 385.66830397 -0.02869374 C391.04800196 -0.01815652 396.4275009 -0.01410689 401.80719757 -0.02729034 C406.72704483 -0.03916485 411.64650758 -0.0327337 416.5663197 -0.01138014 C418.35091242 -0.00689302 420.13553728 -0.00922726 421.92010951 -0.01888329 C424.33712122 -0.03096329 426.75279801 -0.01865936 429.16973877 0 C429.8704167 -0.00936466 430.57109463 -0.01872933 431.29300523 -0.02837777 C434.56243724 0.02242958 436.34025425 0.32639434 439.01668018 2.26269197 C440.75323204 4.74392583 441.08627548 5.8676777 441.09102726 8.85749054 C441.10759879 10.16155979 441.10759879 10.16155979 441.1245051 11.49197388 C441.11214395 12.91783688 441.11214395 12.91783688 441.09953308 14.37250519 C441.10647861 15.38582161 441.11342414 16.39913803 441.12058014 17.44316101 C441.13892057 20.84886745 441.12856596 24.25388284 441.11831665 27.65961456 C441.12537149 30.09703851 441.13411466 32.53445807 441.14442444 34.97187042 C441.16463199 40.91104831 441.16593399 46.85004968 441.15779889 52.78923988 C441.15150216 57.6155978 441.1526329 62.44189982 441.15907097 67.26825714 C441.15997262 67.95484988 441.16087428 68.64144261 441.16180326 69.34884119 C441.16365443 70.74358814 441.16551699 72.13833508 441.16739082 73.53308201 C441.18397413 86.61538786 441.1752454 99.69758591 441.15840524 112.77988529 C441.14370576 124.75303013 441.15833907 136.72592408 441.1871754 148.6990366 C441.21655529 160.98922484 441.22754595 173.27929722 441.2179932 185.56951904 C441.21697063 186.95917 441.21597602 188.34882098 441.21500969 189.73847198 C441.2145333 190.42222853 441.21405691 191.10598508 441.21356608 191.81046152 C441.21140018 196.63172444 441.22121522 201.45287788 441.23578072 206.27411652 C441.25510687 212.76171703 441.24824798 219.24896426 441.22358131 225.73654938 C441.21855569 228.12145502 441.2221082 230.50639596 441.23472977 232.8912735 C441.25056414 236.13946823 441.23579907 239.38610411 441.21305847 242.63422394 C441.2248942 243.58479927 441.23672993 244.5353746 441.24892431 245.51475525 C441.23029126 246.8188245 441.23029126 246.8188245 441.21128178 248.14923859 C441.21087724 249.27375553 441.21087724 249.27375553 441.21046454 250.42098999 C440.21728013 253.72693305 438.49987837 254.75295409 435.58486938 256.50336456 C432.94110367 256.88766101 430.71813781 257.0422893 428.08071899 257.00672913 C426.95492038 257.01544977 426.95492038 257.01544977 425.80637836 257.02434659 C423.28299874 257.03898354 420.76058621 257.02504465 418.23721313 257.01129913 C416.41329449 257.0159066 414.58937955 257.02225847 412.76547241 257.03020811 C407.74682596 257.04694579 402.72848276 257.03863491 397.70983505 257.02626324 C392.30007597 257.01723321 386.89036996 257.03117229 381.48062134 257.04218292 C370.88030341 257.05999464 360.2800986 257.05611634 349.67977619 257.04453236 C341.06675092 257.03550874 332.4537574 257.03426939 323.84072876 257.03862762 C322.00384585 257.03954702 322.00384585 257.03954702 320.1298542 257.04048499 C317.64233652 257.04176386 315.15481884 257.04306071 312.66730118 257.04437536 C289.32700582 257.05578893 265.98677325 257.04265526 242.64648819 257.02117389 C222.6076865 257.00330223 202.56898236 257.00640611 182.53018188 257.02484894 C159.27494785 257.04624192 136.01976887 257.05469022 112.76452637 257.04239988 C110.28602092 257.04112565 107.80751547 257.03986817 105.32901001 257.03862762 C104.10945177 257.03801052 102.88989353 257.03739342 101.63337898 257.03675762 C93.02800299 257.0333 84.42266185 257.03914193 75.81729126 257.04854584 C65.33407049 257.05974973 54.85096956 257.05675967 44.36776257 257.03542286 C39.01628712 257.02489079 33.66501168 257.02082734 28.3135376 257.03401947 C23.41834964 257.04590453 18.52354782 257.03944516 13.62839508 257.01810926 C11.85390862 257.01362667 10.0793898 257.0159464 8.30492401 257.02561241 C5.89915392 257.03771598 3.49471928 257.02536412 1.08901978 257.00672913 C0.3944634 257.01609379 -0.30009298 257.02545846 -1.01569653 257.0351069 C-5.71623421 256.96196059 -8.13137528 255.84860227 -11.41513062 252.50336456 C-12.04154301 250.25758362 -12.04154301 250.25758362 -12.0433197 247.75934601 C-12.05597366 246.80882858 -12.06862762 245.85831116 -12.08166504 244.87899017 C-12.06997284 243.843022 -12.05828064 242.80705383 -12.04623413 241.73969269 C-12.05338943 240.64338028 -12.06054474 239.54706787 -12.06791687 238.41753387 C-12.08484148 234.78947172 -12.06537768 231.16263861 -12.04403687 227.53461456 C-12.04486521 225.01642504 -12.04732327 222.49823558 -12.05134583 219.98004913 C-12.05420641 214.70073908 -12.04000474 209.42174861 -12.01205444 204.14252472 C-11.98000251 198.04160304 -11.9800183 191.94132056 -11.99726921 185.84035349 C-12.01314099 179.96804919 -12.0062994 174.09598061 -11.9893322 168.22368622 C-11.98414268 165.72618383 -11.98464147 163.22866302 -11.99087715 160.73116302 C-11.99631707 157.24271577 -11.9759915 153.75535946 -11.94857788 150.26703644 C-11.95510376 149.23106827 -11.96162964 148.1951001 -11.96835327 147.12773895 C-11.8752532 140.17315998 -11.8752532 140.17315998 -9.60054016 136.86188507 C-6.36460783 134.85032598 -4.14162083 134.97100882 -0.41513062 135.50336456 C24.35155848 160.27005366 3.58486938 205.47797695 3.58486938 240.50336456 C142.84486938 240.50336456 282.10486938 240.50336456 425.58486938 240.50336456 C425.58486938 166.58336456 425.58486938 92.66336456 425.58486938 16.50336456 C286.32486938 16.50336456 147.06486938 16.50336456 3.58486938 16.50336456 C3.58486938 49.83336456 3.58486938 83.16336456 3.58486938 117.50336456 C-1.41513062 121.50336456 -1.41513062 121.50336456 -5.04013062 121.44086456 C-8.40267935 120.50682325 -9.38408441 120.17946687 -11.41513062 117.50336456 C-11.79544735 115.38063145 -11.79544735 115.38063145 -11.80281067 112.87960052 C-11.8127153 111.93045776 -11.82261993 110.981315 -11.83282471 110.00341034 C-11.82832306 108.96384689 -11.82382141 107.92428345 -11.81918335 106.85321808 C-11.8260466 105.7570517 -11.83290985 104.66088531 -11.83998108 103.53150177 C-11.85832268 99.89829402 -11.85440094 96.26551505 -11.84872437 92.63227081 C-11.85328266 90.11265166 -11.85858717 87.59303375 -11.86460876 85.07341766 C-11.8735544 79.78820924 -11.87133311 74.50315787 -11.86117554 69.21796417 C-11.8496955 63.10971115 -11.86376606 57.00189724 -11.89057201 50.89370209 C-11.91539749 45.016649 -11.91790756 39.13973245 -11.91145515 33.26262474 C-11.9113015 30.76231849 -11.91738239 28.26200397 -11.92974663 25.76172829 C-11.94458613 22.26845296 -11.93403026 18.77615 -11.9168396 15.28290558 C-11.92650757 14.24536636 -11.93617554 13.20782715 -11.94613647 12.13884735 C-11.93630234 11.18688477 -11.9264682 10.23492218 -11.91633606 9.25411224 C-11.91612678 8.42839501 -11.91591749 7.60267778 -11.91570187 6.75193882 C-10.50525252 0.41617724 -5.62537479 -0.07518397 0 0 Z " fill="#000000" transform="translate(41.415130615234375,47.49663543701172)"/>
<path d="M0 0 C5.21124298 4.67420649 8.48207214 9.20711202 9.24609375 16.27734375 C9.61779168 23.58740305 8.11594846 29.52604895 3.1640625 35.046875 C-2.84718933 40.62052612 -8.24143835 42.52556923 -16.4140625 42.3046875 C-23.95110828 41.41663679 -28.97250979 37.85869138 -33.625 32 C-37.42458825 26.47332619 -37.76781852 20.51661357 -37 14 C-35.14192232 6.77936901 -31.07107696 2.17386541 -25 -2 C-16.9546304 -6.0226848 -7.38364072 -4.89508033 0 0 Z M-18.8125 14.125 C-21.30339948 16.81259963 -21.30339948 16.81259963 -21.0625 20.125 C-20.18706667 23.01645649 -20.18706667 23.01645649 -18.3125 24.9375 C-15.10056066 26.41325591 -13.33525198 26.06444212 -10 25 C-7.9214392 23.42304368 -7.9214392 23.42304368 -7 21 C-7.07222995 17.46073241 -7.32805009 15.6951206 -9.8125 13.125 C-13.60255582 11.17582844 -15.48904611 11.61394595 -18.8125 14.125 Z " fill="#000000" transform="translate(270,352)"/>
</svg>
