<?xml version="1.0" encoding="UTF-8"?>
<svg version="1.1" xmlns="http://www.w3.org/2000/svg" width="512" height="512">
<path d="M0 0 C1.09307447 -0.00843994 2.18614894 -0.01687988 3.31234688 -0.02557558 C4.50766582 -0.01956553 5.70298476 -0.01355549 6.93452549 -0.00736332 C8.20863256 -0.01274886 9.48273962 -0.01813439 10.79545599 -0.02368313 C14.32993991 -0.03815363 17.86419097 -0.03388811 21.39868772 -0.02651632 C25.21131518 -0.02179089 29.0238918 -0.03428894 32.83650303 -0.04453373 C40.30488203 -0.06173931 47.77317696 -0.06255811 55.24157064 -0.05732083 C61.31120322 -0.0532812 67.38081093 -0.05472021 73.45044231 -0.06006908 C74.74569669 -0.06119172 74.74569669 -0.06119172 76.06711783 -0.06233703 C77.82125978 -0.06386849 79.57540172 -0.06540684 81.32954366 -0.066952 C97.78352618 -0.08068337 114.23746117 -0.07523485 130.69144262 -0.06376678 C145.74765874 -0.05383346 160.80375199 -0.06677565 175.85994916 -0.09070098 C191.31645885 -0.11507755 206.77291127 -0.12470342 222.2294398 -0.11804825 C230.90840259 -0.11455285 239.58727086 -0.11680921 248.26621914 -0.13429928 C255.65434542 -0.14900324 263.04231062 -0.14968042 270.43043368 -0.13222837 C274.20033371 -0.12370105 277.96994577 -0.12161071 281.73983097 -0.13687992 C285.82555305 -0.15322359 289.91057696 -0.13861432 293.99629307 -0.12088871 C295.7859254 -0.13529622 295.7859254 -0.13529622 297.61171192 -0.14999479 C303.88534726 -0.09380032 307.78475587 0.11371136 312.5289011 4.38031673 C316.64596075 8.96345861 315.868582 14.38262808 315.7164011 20.19281673 C315.70286594 21.1718597 315.68933079 22.15090267 315.67538548 23.15961361 C315.64015422 25.56708299 315.59089375 27.97341238 315.5289011 30.38031673 C316.54287968 30.37143429 317.55685825 30.36255184 318.60156345 30.35340023 C328.16512524 30.27225486 337.72861703 30.21232275 347.29244518 30.17306805 C352.20913783 30.15220816 357.1255522 30.12391967 362.04208469 30.07855892 C366.78832192 30.03504422 371.53429174 30.0111676 376.28071308 30.00080776 C378.09000323 29.99342649 379.89927901 29.97901247 381.70845509 29.95739651 C384.24609147 29.92828736 386.78262807 29.92436381 389.32040501 29.92621517 C390.43818836 29.90464352 390.43818836 29.90464352 391.5785532 29.88263607 C396.71388493 29.92307875 399.63475999 31.05454239 403.5289011 34.38031673 C406.39216572 38.05570131 406.90649893 40.76123868 406.91708469 45.36957455 C406.92654118 46.55561275 406.93599766 47.74165096 406.9457407 48.96362972 C406.93966801 50.24066769 406.93359531 51.51770565 406.9273386 52.83344173 C406.92936393 54.17562677 406.93227917 55.51781072 406.93603611 56.85999203 C406.94045617 59.67774556 406.93405125 62.49521367 406.92001438 65.31293392 C406.90311746 68.87335746 406.91292538 72.43309912 406.93033028 75.99349785 C406.98998343 90.33252862 407.0203953 104.37900936 403.5289011 118.38031673 C403.30460423 119.32536068 403.08030735 120.27040462 402.8492136 121.24408627 C402.24401244 123.62775355 401.57082801 125.96951127 400.8414011 128.31781673 C400.58793919 129.14354183 400.33447727 129.96926693 400.07333469 130.820014 C392.72576489 153.93158106 380.20373354 173.79253051 363.5289011 191.38031673 C362.18892063 192.81697689 362.18892063 192.81697689 360.82186985 194.28266048 C349.12571651 206.57565785 335.53887942 215.60112126 320.5289011 223.38031673 C319.92110813 223.6998431 319.31331516 224.01936947 318.68710423 224.34857845 C301.26647082 233.39463483 280.56715045 239.59255375 260.86093235 239.77875423 C255.76626301 241.09295705 252.69415622 246.3303156 249.5914011 250.31781673 C235.18014662 268.01626645 218.02089913 281.35868266 197.5289011 291.38031673 C198.21599274 336.79082785 217.30423161 380.53707662 244.8414011 415.98187923 C245.45066441 416.7781271 245.45066441 416.7781271 246.07223606 417.59046078 C247.56547923 419.47366022 247.56547923 419.47366022 249.51388645 421.45777035 C255.62402198 428.18388218 256.64284163 433.02551611 256.3101511 441.95062923 C256.29883152 443.11287014 256.28751194 444.27511105 256.27584934 445.47257137 C256.23138772 449.1518945 256.13107129 452.8271898 256.0289011 456.50531673 C255.98873555 459.0130726 255.95224022 461.5208901 255.9195261 464.02875423 C255.83175179 470.14729498 255.6982176 476.26351807 255.5289011 482.38031673 C256.13363255 482.35936947 256.73836399 482.3384222 257.36142063 482.31684017 C260.12540881 482.23322728 262.88913023 482.18151619 265.6539011 482.13031673 C266.60522923 482.09680111 267.55655735 482.06328548 268.5367136 482.02875423 C274.56640626 481.9450085 277.94061847 482.36229275 282.5289011 486.38031673 C286.58520508 491.60291531 286.30287654 497.03371816 285.5289011 503.38031673 C283.35797903 507.96337444 281.10397464 510.28007468 276.5289011 512.38031673 C273.15316755 512.82220264 269.801652 512.78924455 266.40110874 512.76799679 C264.85746786 512.77607509 264.85746786 512.77607509 263.2826423 512.7843166 C259.82953255 512.79863994 256.37680377 512.7914815 252.92367649 512.78436947 C250.44994389 512.79007072 247.97621393 512.79703403 245.50248814 512.8051672 C239.47789261 512.82127316 233.45344712 512.82319379 227.42884476 512.81795429 C222.53197917 512.81391267 217.63514441 512.81535605 212.7382803 512.82070255 C212.04129905 512.82145097 211.34431781 512.8221994 210.62621592 512.8229705 C209.21029397 512.82450198 207.79437202 512.82604032 206.37845009 512.82758547 C193.10057109 512.84131304 179.82275101 512.83587101 166.54487335 512.82440025 C154.3985828 512.8144675 142.25244457 512.82740875 130.10617752 512.85133445 C117.63289751 512.87571909 105.15968846 512.88533489 92.6863851 512.87868172 C85.68415423 512.87518809 78.68204053 512.87743099 71.67982769 512.89493275 C65.09622137 512.91118415 58.51285895 512.90648297 51.92924404 512.8876276 C49.51131211 512.88393257 47.09335874 512.88707664 44.67544651 512.89751339 C41.37785142 512.91066181 38.08122989 512.89922935 34.7836771 512.88152218 C33.82404578 512.89112719 32.86441445 512.90073219 31.87570339 512.91062826 C26.2582384 512.84845078 22.96348431 512.17477377 18.5289011 508.38031673 C14.47259712 503.15771816 14.75492566 497.72691531 15.5289011 491.38031673 C17.69606298 486.80519722 19.93822123 484.43902368 24.5289011 482.38031673 C28.14117672 482.0178624 31.71575873 482.09785364 35.3414011 482.19281673 C36.32044407 482.20635189 37.29948704 482.21988705 38.30819798 482.23383236 C40.71566735 482.26906362 43.12199674 482.31832408 45.5289011 482.38031673 C45.51335682 481.7363142 45.49781254 481.09231167 45.48179722 480.42879391 C45.32634467 473.69636004 45.22111412 466.9644398 45.14437962 460.23065853 C45.10928302 457.72133313 45.06159256 455.21214978 45.00082493 452.70331478 C44.91543723 449.08617688 44.87610221 445.47093852 44.84530735 441.85297298 C44.80917835 440.74011425 44.77304935 439.62725552 44.73582554 438.48067379 C44.7317585 430.32361889 46.95315161 426.21523664 52.5289011 420.38031673 C53.42861869 419.29772598 54.31888924 418.20717216 55.19686985 417.10687923 C56.02831516 416.08336361 56.85976048 415.05984798 57.7164011 414.00531673 C84.03734447 380.74621674 104.47261649 334.49320945 103.5289011 291.38031673 C102.60851048 290.91883236 101.68811985 290.45734798 100.7398386 289.98187923 C86.31845469 282.61077892 74.15963735 273.61342097 62.5289011 262.38031673 C61.72710423 261.63008236 60.92530735 260.87984798 60.0992136 260.10687923 C54.85434326 255.07978898 50.59185689 249.67460419 46.37655735 243.78656673 C44.75418098 241.31085235 44.75418098 241.31085235 42.5289011 240.38031673 C40.81295005 240.18613777 39.09624199 239.99698339 37.37680149 239.83661556 C0.89731943 236.35315276 -32.21232343 220.74349959 -58.4710989 195.38031673 C-59.38504421 194.52953548 -60.29898952 193.67875423 -61.24063015 192.80219173 C-80.81534132 174.09560081 -93.16259373 150.52650503 -100.7210989 124.75531673 C-100.9676321 123.92089046 -101.21416531 123.0864642 -101.46816921 122.22675228 C-104.76857053 110.49161163 -105.78573524 98.91654589 -105.8070364 86.75922298 C-105.81348584 85.40212021 -105.82021567 84.04501874 -105.82720852 82.68791866 C-105.83906083 79.87189154 -105.84290096 77.05598611 -105.84170437 74.23993587 C-105.84149953 70.64328225 -105.86902276 67.04740416 -105.90324879 63.45093536 C-105.92551908 60.66014191 -105.92954222 57.86953703 -105.92848492 55.07866383 C-105.93196473 53.11222506 -105.95358445 51.1458451 -105.97558498 49.17952633 C-105.9177985 37.92066609 -105.9177985 37.92066609 -101.4710989 33.38031673 C-97.23899283 30.16295266 -93.51463044 29.96572324 -88.3761282 30.03974056 C-87.57560528 30.03930248 -86.77508236 30.0388644 -85.95030117 30.03841305 C-83.31505504 30.04049627 -80.68045208 30.06380495 -78.04531765 30.08734798 C-76.2140071 30.0929456 -74.38269204 30.09721492 -72.55137539 30.10021114 C-67.73935373 30.11164684 -62.92760519 30.14110307 -58.11569118 30.17432308 C-53.20229696 30.20505144 -48.28885846 30.21872239 -43.37539577 30.23383236 C-33.74051038 30.26597397 -24.10582738 30.31715494 -14.4710989 30.38031673 C-14.5025198 29.47321957 -14.5025198 29.47321957 -14.53457546 28.5477972 C-14.61818835 25.78380902 -14.66989944 23.02008761 -14.7210989 20.25531673 C-14.75461452 19.30398861 -14.78813015 18.35266048 -14.8226614 17.37250423 C-14.90377219 11.53252761 -14.59606566 7.88410697 -10.4710989 3.38031673 C-6.85927108 0.81776338 -4.41066653 0.0048154 0 0 Z M-75.4710989 60.38031673 C-75.49141381 63.97926662 -75.50339761 67.57820136 -75.51406765 71.17719173 C-75.51982815 72.17992123 -75.52558865 73.18265072 -75.5315237 74.21576595 C-75.61701936 112.85980391 -64.0235834 145.4645568 -36.8460989 173.38031673 C-22.61251261 187.53399036 1.57100612 205.38031673 22.5289011 205.38031673 C20.89774379 200.20896067 19.08892714 195.21101792 16.87826633 190.25995541 C0.09848467 152.50859995 -7.66281469 110.82077273 -11.57168484 69.89740658 C-11.73072292 68.23959164 -11.73072292 68.23959164 -11.8929739 66.54828548 C-11.98159695 65.57141781 -12.07021999 64.59455013 -12.16152859 63.58808041 C-12.24109582 61.40963078 -12.24109582 61.40963078 -13.4710989 60.38031673 C-15.40416388 60.28635616 -17.34068728 60.26288156 -19.27603054 60.26679134 C-20.51724163 60.26686687 -21.75845272 60.26694241 -23.03727627 60.26702023 C-24.4019363 60.27212763 -25.76659592 60.27734364 -27.13125515 60.28266048 C-28.51988073 60.28452473 -29.90850697 60.2859486 -31.29713345 60.2869482 C-34.95831005 60.29077287 -38.6194472 60.3006027 -42.28060818 60.31165218 C-46.01402153 60.32186741 -49.74744124 60.32644606 -53.48086452 60.33148861 C-60.81096067 60.34222503 -68.14102426 60.35930082 -75.4710989 60.38031673 Z M313.5289011 61.38031673 C313.2155073 63.63069009 312.96200058 65.88942598 312.7320261 68.14984798 C312.57992124 69.59611514 312.42722595 71.04232029 312.27401829 72.48847103 C312.193895 73.25476833 312.11377171 74.02106564 312.03122044 74.81058407 C307.47345917 117.84195829 298.50672128 160.93099871 279.9273386 200.26703548 C278.39231913 203.11556026 278.39231913 203.11556026 278.5289011 205.38031673 C283.64300157 204.80695753 288.21207669 203.65986168 293.0289011 201.81781673 C293.7188718 201.55460629 294.40884251 201.29139584 295.11972141 201.02020931 C311.79856054 194.46075242 325.49610931 184.65822791 338.5289011 172.38031673 C339.52470188 171.48119564 339.52470188 171.48119564 340.54061985 170.56391048 C355.91511873 156.12497949 365.32309395 137.23889961 371.5289011 117.38031673 C371.84729954 116.40062923 372.16569798 115.42094173 372.49374485 114.41156673 C374.32765287 108.06131806 375.06455628 101.62512048 375.7164011 95.06781673 C375.80051243 94.25804379 375.88462376 93.44827084 375.97128391 92.61395931 C376.90152368 81.90512774 376.60079864 71.11925613 376.5289011 60.38031673 C368.46237936 60.35718937 360.39587138 60.33939964 352.32932472 60.32850456 C348.58407073 60.32327659 344.83883934 60.31618052 341.09359837 60.30487728 C337.48208423 60.29404533 333.87059189 60.28803925 330.25906277 60.28543949 C328.87829781 60.2835858 327.4975341 60.27996624 326.11677837 60.27458668 C324.18914158 60.26737227 322.26148303 60.26690865 320.33383274 60.26679134 C319.23463001 60.26457073 318.13542728 60.26235012 317.00291538 60.26006222 C314.5853864 60.09985041 314.5853864 60.09985041 313.5289011 61.38031673 Z " fill="#FABE2C" transform="translate(105.47109889984131,-0.38031673431396484)"/>
<path d="M0 0 C0 141.57 0 283.14 0 429 C-34.32 429 -68.64 429 -104 429 C-102.21815285 425.4363057 -100.54971221 423.12091185 -98 420.125 C-68.34960432 384.29743855 -47.70990912 337.91853909 -47 291 C-47.92039063 290.53851563 -48.84078125 290.07703125 -49.7890625 289.6015625 C-64.21044641 282.23046219 -76.36926375 273.23310424 -88 262 C-88.80179688 261.24976563 -89.60359375 260.49953125 -90.4296875 259.7265625 C-95.67455784 254.69947224 -99.93704421 249.29428745 -104.15234375 243.40625 C-105.77472012 240.93053561 -105.77472012 240.93053561 -108 240 C-109.71595105 239.80582104 -111.43265911 239.61666666 -113.15209961 239.45629883 C-149.63158167 235.97283603 -182.74122453 220.36318285 -209 195 C-209.91394531 194.14921875 -210.82789063 193.2984375 -211.76953125 192.421875 C-231.34424242 173.71528407 -243.69149483 150.14618829 -251.25 124.375 C-251.4965332 123.54057373 -251.74306641 122.70614746 -251.99707031 121.84643555 C-255.29747163 110.1112949 -256.31463634 98.53622915 -256.3359375 86.37890625 C-256.34238694 85.02180348 -256.34911677 83.66470201 -256.35610962 82.30760193 C-256.36796193 79.49157481 -256.37180206 76.67566937 -256.37060547 73.85961914 C-256.37040063 70.26296552 -256.39792386 66.66708743 -256.43214989 63.07061863 C-256.45442018 60.27982518 -256.45844332 57.4892203 -256.45738602 54.69834709 C-256.46086583 52.73190833 -256.48248555 50.76552836 -256.50448608 48.79920959 C-256.4466996 37.54034935 -256.4466996 37.54034935 -252 33 C-247.76789393 29.78263593 -244.04353154 29.58540651 -238.9050293 29.65942383 C-238.10450638 29.65898575 -237.30398346 29.65854767 -236.47920227 29.65809631 C-233.84395614 29.66017954 -231.20935318 29.68348822 -228.57421875 29.70703125 C-226.7429082 29.71262887 -224.91159314 29.71689819 -223.08027649 29.71989441 C-218.26825483 29.73133011 -213.45650629 29.76078633 -208.64459229 29.79400635 C-203.73119806 29.82473471 -198.81775956 29.83840566 -193.90429688 29.85351562 C-184.26941148 29.88565724 -174.63472848 29.9368382 -165 30 C-165.0314209 29.09290283 -165.0314209 29.09290283 -165.06347656 28.16748047 C-165.14708945 25.40349229 -165.19880054 22.63977087 -165.25 19.875 C-165.28351563 18.92367188 -165.31703125 17.97234375 -165.3515625 16.9921875 C-165.43267329 11.15221087 -165.12496676 7.50379023 -161 3 C-114.97322462 -24.61606523 -53.67598263 0 0 0 Z M-226 60 C-226.02031491 63.59894988 -226.03229871 67.19788462 -226.04296875 70.796875 C-226.04872925 71.79960449 -226.05448975 72.80233398 -226.0604248 73.83544922 C-226.14592046 112.47948718 -214.5524845 145.08424007 -187.375 173 C-173.14141371 187.15367363 -148.95789498 205 -128 205 C-129.63115731 199.82864394 -131.43997396 194.83070119 -133.65063477 189.87963867 C-150.43041643 152.12828322 -158.19171579 110.440456 -162.10058594 69.51708984 C-162.25962402 67.8592749 -162.25962402 67.8592749 -162.421875 66.16796875 C-162.51049805 65.19110107 -162.59912109 64.2142334 -162.69042969 63.20776367 C-162.76999692 61.02931405 -162.76999692 61.02931405 -164 60 C-165.93306498 59.90603943 -167.86958838 59.88256483 -169.80493164 59.88647461 C-171.04614273 59.88655014 -172.28735382 59.88662567 -173.56617737 59.88670349 C-174.9308374 59.89181089 -176.29549702 59.8970269 -177.66015625 59.90234375 C-179.04878183 59.904208 -180.43740807 59.90563187 -181.82603455 59.90663147 C-185.48721115 59.91045613 -189.1483483 59.92028597 -192.80950928 59.93133545 C-196.54292263 59.94155068 -200.27634234 59.94612933 -204.00976562 59.95117188 C-211.33986177 59.96190829 -218.66992536 59.97898409 -226 60 Z " fill="#FED842" transform="translate(256,0)"/>
<path d="M0 0 C69.3 0 138.6 0 210 0 C210 17.49 210 34.98 210 53 C216.93 53 223.86 53 231 53 C238.13422347 57.75614898 238.13422347 57.75614898 240 62 C240.82885269 67.54808604 240.7240695 72.47140883 238.3125 77.5625 C234.63811215 81.43550341 231.82278526 83.14910883 226.46594334 83.38031673 C224.60144812 83.39811647 222.73675142 83.39933037 220.87220764 83.38768005 C219.32856676 83.39575836 219.32856676 83.39575836 217.7537412 83.40399987 C214.30063145 83.41832321 210.84790267 83.41116476 207.39477539 83.40405273 C204.92104279 83.40975399 202.44731283 83.41671729 199.97358704 83.42485046 C193.94899151 83.44095643 187.92454602 83.44287705 181.89994366 83.43763756 C177.00307807 83.43359594 172.10624331 83.43503932 167.2093792 83.44038582 C166.51239795 83.44113424 165.81541671 83.44188266 165.09731482 83.44265376 C163.68139287 83.44418524 162.26547092 83.44572359 160.84954899 83.44726873 C147.57166999 83.46099631 134.29384991 83.45555428 121.01597225 83.44408352 C108.8696817 83.43415077 96.72354347 83.44709202 84.57727642 83.47101771 C72.10399641 83.49540236 59.63078736 83.50501816 47.15748399 83.49836498 C40.15525313 83.49487135 33.15313943 83.49711426 26.15092659 83.51461601 C19.56732027 83.53086742 12.98395785 83.52616623 6.40034294 83.50731087 C3.98241101 83.50361583 1.56445764 83.50675991 -0.85345459 83.51719666 C-4.15104968 83.53034508 -7.44767121 83.51891262 -10.745224 83.50120544 C-12.18467098 83.51561295 -12.18467098 83.51561295 -13.65319771 83.53031152 C-19.2706627 83.46813405 -22.56541679 82.79445704 -27 79 C-31.05630398 73.77740143 -30.77397544 68.34659858 -30 62 C-27.60223857 56.93805921 -25.96308918 55.97785351 -21 53 C-14.07 53 -7.14 53 0 53 C0 35.51 0 18.02 0 0 Z " fill="#32393F" transform="translate(151,429)"/>
<path d="M0 0 C68.97 0 137.94 0 209 0 C209 0.33 209 0.66 209 1 C174.68 1 140.36 1 105 1 C105 18.16 105 35.32 105 53 C70.35 53 35.7 53 0 53 C0 35.51 0 18.02 0 0 Z " fill="#666E71" transform="translate(151,429)"/>
<path d="M0 0 C0 17.49 0 34.98 0 53 C-34.65 53 -69.3 53 -105 53 C-105 35.84 -105 18.68 -105 1 C-79.08525264 0.75043408 -79.08525264 0.75043408 -68.08007812 0.64453125 C-60.55639622 0.57213057 -53.03271441 0.49971918 -45.5090332 0.42724609 C-39.44662452 0.3688496 -33.3842154 0.31049941 -27.32180595 0.25218201 C-25.00323915 0.22987026 -22.68467251 0.20754153 -20.36610603 0.18519592 C-17.13087124 0.15401859 -13.89563589 0.12290043 -10.66040039 0.09179688 C-9.20707809 0.07777077 -9.20707809 0.07777077 -7.72439575 0.0634613 C-6.84794907 0.05504715 -5.97150238 0.046633 -5.0684967 0.03796387 C-4.30248673 0.03058952 -3.53647676 0.02321518 -2.74725437 0.01561737 C-1.8315247 0.00743236 -0.91576625 0 0 0 Z " fill="#474F54" transform="translate(361,429)"/>
<path d="M0 0 C9.20588613 1.31512659 9.20588613 1.31512659 13 6 C15.38974389 9.94065983 17.39092101 14.03073204 19.375 18.1875 C20.19291016 19.84555664 20.19291016 19.84555664 21.02734375 21.53710938 C25 29.67657425 25 29.67657425 25 32 C25.71800781 32.02578125 26.43601562 32.0515625 27.17578125 32.078125 C34.24841041 32.46566632 41.05943781 33.42452128 48 34.8125 C48.81251221 34.96557617 49.62502441 35.11865234 50.4621582 35.27636719 C55.24258933 36.27942846 58.46064476 37.42693662 62 41 C64.613057 45.77558693 65.69070127 49.57306146 65 55 C61.23098412 61.92848741 55.00323616 66.88608434 49.203125 72.10351562 C44.86461586 76.076428 44.86461586 76.076428 42.40234375 81.26098633 C42.35754324 83.60359482 42.58837904 85.69477239 43 88 C43.1040918 88.74757568 43.20818359 89.49515137 43.31542969 90.26538086 C43.65755462 92.54384471 44.06658218 94.79974659 44.5 97.0625 C47.23383092 111.40895506 47.23383092 111.40895506 44.828125 116.4609375 C44.30734375 117.09257812 43.7865625 117.72421875 43.25 118.375 C42.48429687 119.34566406 42.48429687 119.34566406 41.703125 120.3359375 C36.44372891 125.47470524 32.87729923 124 25 124 C16.75 119.71 8.5 115.42 0 111 C0 74.37 0 37.74 0 0 Z " fill="#FE9100" transform="translate(256,68)"/>
<path d="M0 0 C0 36.63 0 73.26 0 111 C-28.05771644 125.02885822 -28.05771644 125.02885822 -36 124 C-40.52689611 121.69539834 -43.85803431 119.01063681 -45.6875 114.1875 C-46.3433967 109.59622308 -46.15524497 105.6416792 -45.0625 101.125 C-44.90652344 100.36058594 -44.75054687 99.59617187 -44.58984375 98.80859375 C-44.13302445 96.63340781 -43.56014924 94.48243372 -42.94140625 92.34765625 C-41.89091291 87.66486284 -41.36276774 83.60294062 -43 79 C-47.91878948 72.07434441 -54.48019001 66.49529119 -60.92114258 61.02026367 C-63.98170399 58.04596588 -64.88793486 55.97123124 -65.375 51.75 C-64.7916145 45.91614498 -63.04514328 41.78866766 -58.6015625 37.90234375 C-53.90920174 34.95869331 -48.38025755 34.54274326 -43 33.75 C-41.93265625 33.57726562 -40.8653125 33.40453125 -39.765625 33.2265625 C-34.77940288 32.44513963 -30.05715447 31.91235757 -25 32 C-24.65388672 30.82824219 -24.65388672 30.82824219 -24.30078125 29.6328125 C-22.59485819 24.86852286 -20.42754805 20.40788074 -18.1875 15.875 C-17.76146484 14.98167969 -17.33542969 14.08835937 -16.89648438 13.16796875 C-13.22914993 5.74452928 -8.83183953 0 0 0 Z " fill="#FABE2C" transform="translate(256,68)"/>
<path d="M0 0 C1.6005851 -0.00618599 1.6005851 -0.00618599 3.23350525 -0.01249695 C4.39372192 -0.00171112 5.5539386 0.00907471 6.74931335 0.02018738 C7.97899338 0.0197493 9.2086734 0.01931122 10.47561646 0.01885986 C13.83906727 0.02058945 17.2019629 0.0356148 20.56531549 0.05658174 C24.08335239 0.07535982 27.60139703 0.07709986 31.11947632 0.08065796 C37.77758275 0.08997513 44.43554107 0.11458437 51.09358233 0.14470643 C58.67515342 0.17826073 66.25673165 0.19473902 73.83835852 0.20979273 C89.43076606 0.24113433 105.02296963 0.29614217 120.61528015 0.36076355 C120.61528015 10.26076355 120.61528015 20.16076355 120.61528015 30.36076355 C104.2905335 30.45109757 87.96600051 30.52476497 71.64107323 30.56801224 C64.06093262 30.58862744 56.48095845 30.61672791 48.90092468 30.66252136 C42.2932698 30.70242129 35.68573548 30.72820394 29.07796347 30.73711753 C25.5799394 30.74232702 22.08226019 30.75454886 18.58434677 30.78368378 C14.67711224 30.81596331 10.77021347 30.81672092 6.86283875 30.81486511 C5.70621735 30.82924622 4.54959595 30.84362732 3.35792542 30.85844421 C-2.86305134 30.8264281 -6.68736527 30.59896629 -11.38471985 26.36076355 C-15.44102383 21.13816498 -15.15869529 15.70736213 -14.38471985 9.36076355 C-11.35950024 2.97418883 -7.06749898 -0.02113908 0 0 Z " fill="#474E53" transform="translate(135.3847198486328,481.6392364501953)"/>
</svg>
