<?xml version="1.0" encoding="UTF-8"?>
<svg version="1.1" xmlns="http://www.w3.org/2000/svg" width="512" height="512">
<path d="M0 0 C1.91541581 -0.00461239 3.83082808 -0.01096757 5.74623299 -0.01890898 C10.99476045 -0.03557893 16.2429963 -0.02736644 21.4915247 -0.0149641 C27.15759806 -0.00590644 32.82362162 -0.01988692 38.48968506 -0.03088379 C49.58362662 -0.04866589 60.6774599 -0.04483036 71.7714057 -0.03323323 C80.78806287 -0.02419799 89.8046897 -0.0229753 98.8213501 -0.02732849 C100.10487558 -0.02794142 101.38840107 -0.02855436 102.71082127 -0.02918586 C105.31831663 -0.03046477 107.92581198 -0.03176162 110.53330731 -0.03307623 C134.28425756 -0.04415604 158.03514224 -0.03266781 181.78608206 -0.01170584 C203.45816835 0.00727596 225.13016062 0.00557742 246.80224609 -0.0135498 C271.16286163 -0.0349781 295.5234132 -0.0433825 319.88403893 -0.03110075 C322.48191706 -0.02982656 325.07979519 -0.02856908 327.67767334 -0.02732849 C329.59495859 -0.02640284 329.59495859 -0.02640284 331.55097687 -0.02545848 C340.55631595 -0.02200547 349.56162166 -0.02783292 358.56695557 -0.0372467 C369.54215057 -0.04846755 380.51723114 -0.04542471 391.49241304 -0.02412373 C397.0916222 -0.0136146 402.6906406 -0.00948934 408.28984833 -0.02272034 C413.41701119 -0.03465261 418.54380673 -0.02806759 423.67093635 -0.00681013 C425.52409686 -0.00234766 427.37728849 -0.00460234 429.23042893 -0.01431328 C441.49424832 -0.07364142 452.11764411 0.45432813 461.44091189 9.36300343 C468.86228862 18.16447613 470.12457508 27.26298087 469.99795532 38.40556335 C470.0034475 39.87794636 470.01156104 41.35032149 470.02204263 42.82267743 C470.04307441 46.83746323 470.02705336 50.85134923 470.00454164 54.86609495 C469.98677053 59.20764776 470.0037694 63.54908831 470.01626587 67.89064026 C470.03519422 76.38253133 470.02208515 84.87408131 469.99773999 93.36594697 C469.97043398 103.26077543 469.9737814 113.15552358 469.97800665 123.05038015 C469.9843792 140.7064675 469.96109074 158.3623932 469.921875 176.01843262 C469.88385239 193.14185506 469.86970531 210.26508816 469.88085938 227.3885498 C469.89297951 246.05021325 469.89261382 264.71179355 469.86988771 283.3734501 C469.8674732 285.36380247 469.86506123 287.35415484 469.86265182 289.34450722 C469.86084121 290.81333271 469.86084121 290.81333271 469.85899401 292.31183144 C469.85124208 299.20569676 469.8520204 306.09953109 469.85582352 312.99339867 C469.860071 321.39467861 469.84959184 329.79579291 469.82059641 338.19702622 C469.80612662 342.48173692 469.79793873 346.76620661 469.80708313 351.05093765 C469.81525585 354.97586752 469.80485 358.90030045 469.77983098 362.82515506 C469.77399153 364.24216297 469.77481711 365.65921798 469.78311713 367.07621362 C469.84358664 378.43392753 468.01869966 386.34257927 460.15966797 394.71887207 C449.58206983 404.62590673 436.60190543 403.79744946 422.95800781 403.73498535 C421.22256476 403.73442039 419.48712124 403.73473946 417.75167847 403.73587036 C413.06642719 403.73644156 408.38127941 403.72472518 403.69605207 403.71072245 C398.79001872 403.69817604 393.88398271 403.69704151 388.97793579 403.69467163 C379.69926264 403.68846832 370.4206369 403.67207311 361.14198458 403.65197265 C350.57364119 403.62957781 340.00529547 403.61861122 329.43693423 403.60858178 C307.70776698 403.58770583 285.97864234 403.55255228 264.24951172 403.50793457 C264.44552475 404.14543137 264.64153778 404.78292816 264.8434906 405.43974304 C265.75029013 408.392875 266.65420791 411.3468819 267.55810547 414.30090332 C267.86631226 415.30310913 268.17451904 416.30531494 268.49206543 417.33789062 C270.31065415 423.28930902 272.02983484 429.25586975 273.62957764 435.26991272 C275.83745547 443.52161175 278.28153162 450.45998691 283.24951172 457.50793457 C283.55373047 458.20789551 283.85794922 458.90785645 284.17138672 459.62902832 C285.53590361 462.00704508 286.76923349 462.42081446 289.24951172 463.50793457 C290.56918527 464.45636525 291.88121278 465.41549044 293.18701172 466.38293457 C302.82454036 472.77880619 313.15276391 474.08849447 324.50891113 473.96322441 C326.62047566 473.9409105 328.73064219 473.94518494 330.84228516 473.95570374 C336.07245215 473.97711726 341.30228192 473.95993315 346.53240967 473.9342041 C350.98508113 473.912777 355.43683974 473.91085179 359.88949585 473.93712044 C361.96233247 473.94145065 364.03354776 473.91692306 366.10620117 473.8915863 C367.3652124 473.89831863 368.62422363 473.90505096 369.92138672 473.9119873 C371.02579102 473.90658432 372.13019531 473.90118134 373.26806641 473.89561462 C377.23507619 474.71034673 378.73776771 476.40245848 381.24951172 479.50793457 C382.0524411 483.36199562 381.66964381 484.8649364 379.5194397 488.15575218 C375.17679584 492.23214976 368.8702974 491.19248654 363.30566406 491.14285278 C361.9602166 491.14861456 360.614777 491.15655607 359.26935387 491.16648901 C355.57317654 491.18737862 351.87764396 491.17703812 348.1814642 491.16155791 C344.19500783 491.15025676 340.20866325 491.16770093 336.222229 491.18145752 C328.4132327 491.20370777 320.60447648 491.19888085 312.79547071 491.18439431 C306.44978837 491.17310907 300.10417338 491.17156807 293.75848389 491.1770134 C292.40451384 491.17816264 292.40451384 491.17816264 291.02319086 491.17933511 C289.18956516 491.18093371 287.35593949 491.18255478 285.52231383 491.18419807 C268.32246548 491.1984608 251.12275031 491.18205463 233.9229238 491.15519623 C219.15997495 491.13285697 204.39722265 491.13673695 189.63427734 491.15979004 C172.49660059 491.1865388 155.35904061 491.19708745 138.2213459 491.18172872 C136.39441047 491.18013595 134.56747502 491.1785641 132.74053955 491.1770134 C131.8416181 491.17624202 130.94269665 491.17547064 130.01653516 491.17467589 C123.67739715 491.17035611 117.3383331 491.17765141 110.99920654 491.18941116 C103.27541016 491.20342446 95.55186789 491.19966101 87.82810068 491.17300744 C83.88613554 491.15985331 79.94459429 491.15474363 76.00263214 491.1712532 C72.39518169 491.18613346 68.7885487 491.17799784 65.18117261 491.15136544 C63.25546202 491.14311873 61.32969485 491.15947574 59.4040432 491.1766516 C50.08448052 491.07028861 50.08448052 491.07028861 46.97958374 488.15575218 C44.82937963 484.8649364 44.44658233 483.36199562 45.24951172 479.50793457 C47.76125572 476.40245848 49.26394725 474.71034673 53.23095703 473.89561462 C54.33536133 473.90101761 55.43976563 473.90642059 56.57763672 473.9119873 C57.83664795 473.90525497 59.09565918 473.89852264 60.39282227 473.8915863 C61.06131195 473.89975813 61.72980164 473.90792995 62.41854858 473.91634941 C64.53184304 473.94191952 66.64320018 473.93692178 68.7565918 473.92445374 C73.25444614 473.90373919 77.75169744 473.92330806 82.24951172 473.94543457 C87.43954651 473.96667142 92.62894646 473.97078618 97.81896973 473.94493294 C99.87799543 473.94162319 101.93575143 473.96262475 103.99462891 473.9853363 C115.66264552 473.95280823 125.84693601 471.91368164 135.34716797 464.87512207 C137.24951172 463.50793457 137.24951172 463.50793457 139.37060547 462.57824707 C141.75818754 461.21816914 142.06425179 459.95813115 143.24951172 457.50793457 C143.67385498 456.90658691 144.09819824 456.30523926 144.53540039 455.68566895 C150.67593938 446.82718647 152.78531962 436.26801408 155.56201172 426.00793457 C156.36425731 423.09898291 157.17061407 420.19119975 157.97807312 417.28369141 C158.47622784 415.48409509 158.97051729 413.68342336 159.46052551 411.8815918 C159.68133286 411.07314819 159.9021402 410.26470459 160.12963867 409.4317627 C160.32249954 408.72024048 160.51536041 408.00871826 160.71406555 407.27563477 C161.24951172 405.50793457 161.24951172 405.50793457 162.24951172 403.50793457 C160.90551867 403.51208264 160.90551867 403.51208264 159.53437424 403.51631451 C137.69913905 403.58266412 115.86392131 403.6322588 94.02860641 403.66337109 C83.46906659 403.67881795 72.90959419 403.69986568 62.35009766 403.73425293 C53.14285588 403.76422215 43.93566296 403.78352541 34.72837377 403.79020005 C29.85643923 403.79409959 24.98464443 403.80321835 20.11275482 403.82512474 C15.51960423 403.84560888 10.92664988 403.85174444 6.33345795 403.84725761 C4.65497773 403.84807751 2.9764904 403.8539717 1.29804993 403.86555099 C-12.97092259 403.95909507 -24.83010365 403.16416202 -35.46533203 392.84387207 C-43.14330421 384.62149599 -43.19064427 375.86198625 -43.15162659 365.11151123 C-43.15723649 363.64472483 -43.16414083 362.17794291 -43.17222255 360.71116805 C-43.19052729 356.69339812 -43.19018168 352.67581591 -43.18663943 348.65801382 C-43.18602615 344.3197502 -43.20259563 339.98154623 -43.21681213 335.64331055 C-43.2417064 327.14864011 -43.24997551 318.65403212 -43.25164927 310.15932825 C-43.25307596 303.2526713 -43.25924623 296.34603491 -43.26875114 289.43938446 C-43.29516404 269.84726705 -43.30901034 250.2551989 -43.30675972 230.66306356 C-43.30663985 229.60736904 -43.30651999 228.55167452 -43.30639648 227.46398926 C-43.30627384 226.40700214 -43.3061512 225.35001502 -43.30602484 224.26099798 C-43.30480563 207.13323321 -43.33351145 190.00566634 -43.37581158 172.8779588 C-43.41892667 155.28108038 -43.43962083 137.68429844 -43.43703026 120.08736587 C-43.43603516 110.21213276 -43.44424043 100.33710715 -43.47656441 90.46192169 C-43.50391094 82.05365565 -43.51037972 73.64569115 -43.49003614 65.23739985 C-43.48025588 60.95018236 -43.48001257 56.66354304 -43.50609589 52.37638092 C-43.52976535 48.44542102 -43.52532482 44.5154953 -43.49924349 40.58455989 C-43.49465445 39.16870863 -43.5000272 37.75277925 -43.51682372 36.33702019 C-43.63193797 25.93881004 -41.78570485 17.47935142 -34.94186217 9.36302972 C-24.87285676 -0.25848792 -13.10613374 -0.06867958 0 0 Z " fill="#69A7FF" transform="translate(42.75048828125,10.4920654296875)"/>
<path d="M0 0 C168.96 0 337.92 0 512 0 C512 75.52282378 512 75.52282378 502.91015625 85.2109375 C492.33255811 95.11797216 479.35239371 94.28951489 465.70849609 94.22705078 C463.97305305 94.22648582 462.23760952 94.22680489 460.50216675 94.22793579 C455.81691547 94.22850699 451.13176769 94.21679061 446.44654036 94.20278788 C441.54050701 94.19024147 436.63447099 94.18910694 431.72842407 94.18673706 C422.44975092 94.18053375 413.17112519 94.16413854 403.89247286 94.14403808 C393.32412947 94.12164324 382.75578375 94.11067665 372.18742251 94.10064721 C350.45825526 94.07977126 328.72913063 94.04461771 307 94 C307.19601303 94.6374968 307.39202606 95.27499359 307.59397888 95.93180847 C308.50077841 98.88494043 309.40469619 101.83894733 310.30859375 104.79296875 C310.61680054 105.79517456 310.92500732 106.79738037 311.24255371 107.82995605 C313.06114243 113.78137445 314.78032312 119.74793518 316.38006592 125.76197815 C318.58794375 134.01367718 321.03201991 140.95205234 326 148 C326.30421875 148.69996094 326.6084375 149.39992188 326.921875 150.12109375 C328.2863919 152.49911051 329.51972177 152.91287989 332 154 C333.31967355 154.94843068 334.63170106 155.90755587 335.9375 156.875 C345.57502864 163.27087162 355.90325219 164.5805599 367.25939941 164.45528984 C369.37096395 164.43297593 371.48113047 164.43725037 373.59277344 164.44776917 C378.82294043 164.46918269 384.0527702 164.45199858 389.28289795 164.42626953 C393.73556941 164.40484243 398.18732802 164.40291722 402.63998413 164.42918587 C404.71282076 164.43351608 406.78403604 164.40898849 408.85668945 164.38365173 C410.7452063 164.39375023 410.7452063 164.39375023 412.671875 164.40405273 C413.7762793 164.39864975 414.88068359 164.39324677 416.01855469 164.38768005 C419.98556447 165.20241216 421.48825599 166.89452391 424 170 C424.80292939 173.85406105 424.42013209 175.35700183 422.26992798 178.64781761 C417.92728412 182.72421519 411.62078568 181.68455197 406.05615234 181.63491821 C404.71070488 181.64067999 403.36526528 181.6486215 402.01984215 181.65855443 C398.32366482 181.67944405 394.62813224 181.66910355 390.93195248 181.65362334 C386.94549611 181.64232219 382.95915153 181.65976636 378.97271729 181.67352295 C371.16372098 181.6957732 363.35496476 181.69094628 355.545959 181.67645974 C349.20027665 181.6651745 342.85466166 181.6636335 336.50897217 181.66907883 C335.15500212 181.67022807 335.15500212 181.67022807 333.77367914 181.67140054 C331.94005344 181.67299914 330.10642777 181.67462021 328.27280211 181.6762635 C311.07295377 181.69052623 293.87323859 181.67412006 276.67341208 181.64726166 C261.91046323 181.6249224 247.14771094 181.62880238 232.38476562 181.65185547 C215.24708888 181.67860423 198.10952889 181.68915288 180.97183418 181.67379415 C179.14489875 181.67220138 177.3179633 181.67062953 175.49102783 181.66907883 C174.14264566 181.66792176 174.14264566 181.66792176 172.76702344 181.66674132 C166.42788543 181.66242154 160.08882139 181.66971684 153.74969482 181.68147659 C146.02589844 181.69548989 138.30235617 181.69172644 130.57858896 181.66507287 C126.63662382 181.65191874 122.69508257 181.64680905 118.75312042 181.66331863 C115.14566997 181.67819889 111.53903698 181.67006326 107.93166089 181.64343087 C106.0059503 181.63518416 104.08018313 181.65154117 102.15453148 181.66871703 C92.8349688 181.56235404 92.8349688 181.56235404 89.73007202 178.64781761 C87.57986791 175.35700183 87.19707061 173.85406105 88 170 C90.51174401 166.89452391 92.01443553 165.20241216 95.98144531 164.38768005 C97.08584961 164.39308304 98.19025391 164.39848602 99.328125 164.40405273 C100.58713623 164.3973204 101.84614746 164.39058807 103.14331055 164.38365173 C104.14604507 164.39590947 104.14604507 164.39590947 105.16903687 164.40841484 C107.28233133 164.43398495 109.39368846 164.42898721 111.50708008 164.41651917 C116.00493443 164.39580462 120.50218572 164.41537349 125 164.4375 C130.19003479 164.45873685 135.37943474 164.46285161 140.56945801 164.43699837 C142.62848372 164.43368861 144.68623971 164.45469018 146.74511719 164.47740173 C158.4131338 164.44487366 168.59742429 162.40574707 178.09765625 155.3671875 C180 154 180 154 182.12109375 153.0703125 C184.50867582 151.71023456 184.81474007 150.45019658 186 148 C186.42434326 147.39865234 186.84868652 146.79730469 187.28588867 146.17773438 C193.42642766 137.3192519 195.5358079 126.76007951 198.3125 116.5 C199.11474559 113.59104834 199.92110235 110.68326518 200.7285614 107.77575684 C201.22671612 105.97616052 201.72100557 104.17548879 202.21101379 102.37365723 C202.43182114 101.56521362 202.65262848 100.75677002 202.88012695 99.92382812 C203.07298782 99.21230591 203.26584869 98.50078369 203.46455383 97.7677002 C204 96 204 96 205 94 C204.10400463 94.00276538 203.20800926 94.00553076 202.28486252 94.00837994 C180.44962733 94.07472955 158.6144096 94.12432423 136.7790947 94.15543652 C126.21955487 94.17088338 115.66008247 94.19193111 105.10058594 94.22631836 C95.89334416 94.25628758 86.68615124 94.27559084 77.47886205 94.28226548 C72.60692751 94.28616501 67.73513271 94.29528378 62.8632431 94.31719017 C58.27009252 94.33767431 53.67713816 94.34380987 49.08394623 94.33932304 C47.40546601 94.34014294 45.72697868 94.34603713 44.04853821 94.35761642 C29.7795657 94.4511605 17.92038463 93.65622745 7.28515625 83.3359375 C-11.66697621 63.04001081 0 15.3533973 0 0 Z " fill="#CBC9C2" transform="translate(0,320)"/>
<path d="M0 0 C1.91541581 -0.00461239 3.83082808 -0.01096757 5.74623299 -0.01890898 C10.99476045 -0.03557893 16.2429963 -0.02736644 21.4915247 -0.0149641 C27.15759806 -0.00590644 32.82362162 -0.01988692 38.48968506 -0.03088379 C49.58362662 -0.04866589 60.6774599 -0.04483036 71.7714057 -0.03323323 C80.78806287 -0.02419799 89.8046897 -0.0229753 98.8213501 -0.02732849 C100.10487558 -0.02794142 101.38840107 -0.02855436 102.71082127 -0.02918586 C105.31831663 -0.03046477 107.92581198 -0.03176162 110.53330731 -0.03307623 C134.28425756 -0.04415604 158.03514224 -0.03266781 181.78608206 -0.01170584 C203.45816835 0.00727596 225.13016062 0.00557742 246.80224609 -0.0135498 C271.16286163 -0.0349781 295.5234132 -0.0433825 319.88403893 -0.03110075 C322.48191706 -0.02982656 325.07979519 -0.02856908 327.67767334 -0.02732849 C329.59495859 -0.02640284 329.59495859 -0.02640284 331.55097687 -0.02545848 C340.55631595 -0.02200547 349.56162166 -0.02783292 358.56695557 -0.0372467 C369.54215057 -0.04846755 380.51723114 -0.04542471 391.49241304 -0.02412373 C397.0916222 -0.0136146 402.6906406 -0.00948934 408.28984833 -0.02272034 C413.41701119 -0.03465261 418.54380673 -0.02806759 423.67093635 -0.00681013 C425.52409686 -0.00234766 427.37728849 -0.00460234 429.23042893 -0.01431328 C441.50511091 -0.07369397 452.09212649 0.46826894 461.44080675 9.35285926 C468.1236592 17.31549029 470.13569205 25.65637315 469.97103882 35.80865479 C469.97617493 36.98398773 469.98131104 38.15932068 469.98660278 39.37026978 C469.99474332 42.60321465 469.97617093 45.83468273 469.94594809 49.06745356 C469.91956275 52.61799087 469.92852782 56.16848089 469.93285561 59.71908951 C469.93603301 66.59720188 469.90845304 73.47484052 469.86984763 80.3528315 C469.8264961 88.31619929 469.82187097 96.27928619 469.81713867 104.24279785 C469.78568964 125.24791802 469.70192236 146.2529335 469.62451172 167.25793457 C469.50076172 214.20043457 469.37701172 261.14293457 469.24951172 309.50793457 C300.28951172 309.50793457 131.32951172 309.50793457 -42.75048828 309.50793457 C-42.87423828 262.56543457 -42.99798828 215.62293457 -43.12548828 167.25793457 C-43.1801123 152.43597168 -43.23473633 137.61400879 -43.29101562 122.34289551 C-43.31811523 104.24279785 -43.31811523 104.24279785 -43.32315063 95.76922607 C-43.32874036 89.85127429 -43.35072538 83.93366331 -43.38394165 78.01580811 C-43.42222247 71.18550886 -43.43948346 64.35553586 -43.43115798 57.52512862 C-43.42755415 54.0333649 -43.4331362 50.54232967 -43.46577907 47.05070066 C-43.49572619 43.30276366 -43.48839375 39.55663536 -43.47201538 35.80865479 C-43.48949137 34.73111057 -43.50696735 33.65356636 -43.52497292 32.54336929 C-43.42159981 23.71241476 -40.66534644 16.17249528 -34.94178331 9.35285926 C-24.84471395 -0.24296841 -13.11871999 -0.06874553 0 0 Z M-11.75048828 31.50793457 C-11.75048828 113.34793457 -11.75048828 195.18793457 -11.75048828 279.50793457 C136.74951172 279.50793457 285.24951172 279.50793457 438.24951172 279.50793457 C438.24951172 197.66793457 438.24951172 115.82793457 438.24951172 31.50793457 C289.74951172 31.50793457 141.24951172 31.50793457 -11.75048828 31.50793457 Z " fill="#565959" transform="translate(42.75048828125,10.4920654296875)"/>
<path d="M0 0 C1.1033862 0.00414807 1.1033862 0.00414807 2.22906303 0.00837994 C3.49531013 0.00219395 3.49531013 0.00219395 4.78713799 -0.00411701 C5.71502129 0.00666882 6.64290459 0.01745464 7.59890556 0.02856731 C8.57455467 0.02812923 9.55020378 0.02769115 10.55541801 0.0272398 C13.79130645 0.02933554 17.02668148 0.05270378 20.26247978 0.07617474 C22.50164316 0.08176789 24.7408102 0.08603931 26.97997856 0.0890379 C32.88198746 0.10050871 38.78377593 0.12999521 44.68569756 0.16314983 C50.70475087 0.19380251 56.72383971 0.20753295 62.74294853 0.22265911 C74.55945179 0.2548627 86.37579123 0.30608608 98.19216728 0.36914349 C101.43864299 7.77359481 101.43864299 7.77359481 102.44729424 11.49341106 C102.74824753 12.58538548 102.74824753 12.58538548 103.05528069 13.69941998 C103.36473877 14.84497608 103.36473877 14.84497608 103.68044853 16.01367474 C104.14405112 17.67725076 104.60826312 19.34065705 105.07302666 21.00390911 C105.79015805 23.5888607 106.50280266 26.17476447 107.20461845 28.76391888 C109.84689928 38.47636157 112.43277016 46.986463 118.19216728 55.36914349 C118.54053642 56.09061565 118.88890556 56.81208782 119.24783134 57.55542278 C120.48901094 59.93927056 121.76481899 60.30522287 124.19216728 61.36914349 C125.51184083 62.31757417 126.82386834 63.27669936 128.12966728 64.24414349 C137.76719592 70.6400151 148.09541948 71.94970338 159.4515667 71.82443333 C161.56313123 71.80211942 163.67329775 71.80639385 165.78494072 71.81691265 C171.01510771 71.83832618 176.24493748 71.82114206 181.47506523 71.79541302 C185.92773669 71.77398591 190.3794953 71.77206071 194.83215141 71.79832935 C196.90498804 71.80265957 198.97620332 71.77813198 201.04885674 71.75279522 C202.30786797 71.75952755 203.5668792 71.76625988 204.86404228 71.77319622 C205.96844658 71.76779324 207.07285088 71.76239025 208.21072197 71.75682354 C212.17773175 72.57155565 213.68042328 74.2636674 216.19216728 77.36914349 C216.99509667 81.22320454 216.61229937 82.72614532 214.46209526 86.0169611 C210.1194514 90.09335868 203.81295296 89.05369546 198.24831963 89.0040617 C196.90287216 89.00982348 195.55743256 89.01776498 194.21200943 89.02769792 C190.5158321 89.04858754 186.82029952 89.03824703 183.12411976 89.02276683 C179.13766339 89.01146568 175.15131881 89.02890985 171.16488457 89.04266644 C163.35588826 89.06491668 155.54713205 89.06008976 147.73812628 89.04560323 C141.39244393 89.03431799 135.04682895 89.03277698 128.70113945 89.03822231 C127.3471694 89.03937156 127.3471694 89.03937156 125.96584642 89.04054403 C124.13222073 89.04214263 122.29859505 89.04376369 120.4649694 89.04540698 C103.26512105 89.05966972 86.06540587 89.04326355 68.86557937 89.01640515 C54.10263051 88.99406589 39.33987822 88.99794587 24.57693291 89.02099895 C7.43925616 89.04774772 -9.69830383 89.05829637 -26.83599854 89.04293764 C-28.66293397 89.04134487 -30.48986942 89.03977301 -32.31680489 89.03822231 C-33.66518706 89.03706525 -33.66518706 89.03706525 -35.04080927 89.03588481 C-41.37994729 89.03156503 -47.71901133 89.03886033 -54.05813789 89.05062008 C-61.78193427 89.06463337 -69.50547654 89.06086992 -77.22924376 89.03421636 C-81.1712089 89.02106222 -85.11275015 89.01595254 -89.0547123 89.03246212 C-92.66216275 89.04734237 -96.26879574 89.03920675 -99.87617183 89.01257436 C-101.80188242 89.00432765 -103.72764959 89.02068466 -105.65330124 89.03786051 C-114.97286392 88.93149752 -114.97286392 88.93149752 -118.0777607 86.0169611 C-120.22796481 82.72614532 -120.6107621 81.22320454 -119.80783272 77.36914349 C-117.29608871 74.2636674 -115.79339719 72.57155565 -111.82638741 71.75682354 C-110.16978096 71.76492802 -110.16978096 71.76492802 -108.47970772 71.77319622 C-107.22069649 71.76646389 -105.96168526 71.75973156 -104.66452217 71.75279522 C-103.66178764 71.76505296 -103.66178764 71.76505296 -102.63879585 71.77755833 C-100.52550139 71.80312843 -98.41414425 71.7981307 -96.30075264 71.78566265 C-91.80289829 71.7649481 -87.305647 71.78451698 -82.80783272 71.80664349 C-77.61779792 71.82788034 -72.42839798 71.83199509 -67.23837471 71.80614185 C-65.179349 71.8028321 -63.12159301 71.82383367 -61.06271553 71.84654522 C-49.39469892 71.81401715 -39.21040843 69.77489056 -29.71017647 62.73633099 C-27.80783272 61.36914349 -27.80783272 61.36914349 -25.68673897 60.43945599 C-23.29911723 59.07935545 -22.99324555 57.81936296 -21.80783272 55.36914349 C-21.38276436 54.76707073 -20.957696 54.16499798 -20.51974678 53.5446806 C-14.39082336 44.70616055 -12.31009833 34.17341285 -9.55783272 23.93164349 C-8.76753197 21.03251037 -7.97296778 18.13464997 -7.17263985 15.23826885 C-6.67854555 13.44601433 -6.19077155 11.65200233 -5.71011543 9.85609722 C-5.48938362 9.04772915 -5.26865181 8.23936108 -5.04123116 7.406497 C-4.75527077 6.34254459 -4.75527077 6.34254459 -4.4635334 5.2570982 C-2.83904075 0.57970706 -2.83904075 0.57970706 0 0 Z " fill="#8F8F8B" transform="translate(207.8078327178955,412.63085651397705)"/>
<path d="M0 0 C4.51654375 -0.09987254 9.03247989 -0.1719343 13.54980469 -0.21972656 C15.08214534 -0.23967724 16.61441152 -0.26684816 18.14648438 -0.30175781 C29.13763019 -0.54568664 38.23168043 0.05830862 47.25 7 C53.26856805 12.85724873 57.19146176 20.52733346 57.73828697 28.94314194 C57.76310195 31.06219677 57.75588462 33.18179862 57.7215271 35.30072021 C57.72665365 36.47886929 57.7317802 37.65701836 57.7370621 38.87086892 C57.74517237 42.10515813 57.72667223 45.3379678 57.69639373 48.57208252 C57.67029084 52.07292321 57.67926463 55.57370474 57.68380737 59.07461548 C57.68694148 65.12817138 57.66824341 71.1813369 57.63438034 77.23479462 C57.58545353 85.98682412 57.56997495 94.73866638 57.56245239 103.49081782 C57.54934628 117.69320408 57.50948663 131.89538264 57.45263672 146.09765625 C57.39749595 159.88735928 57.3550581 173.67700574 57.32958984 187.46679688 C57.3280135 188.31792493 57.32643716 189.16905298 57.32481305 190.04597279 C57.31698238 194.31616921 57.30940024 198.58636602 57.30194163 202.85656309 C57.23982124 238.23786278 57.13255214 273.61889823 57 309 C46.77 309 36.54 309 26 309 C25.99453156 303.71847176 25.99453156 303.71847176 25.98895264 298.33024597 C25.9536556 266.02149141 25.89860269 233.71282007 25.82207905 201.40413613 C25.81206192 197.16729227 25.80221773 192.93044803 25.79248047 188.69360352 C25.7905391 187.85014495 25.78859772 187.00668638 25.78659752 186.13766847 C25.75559947 172.491033 25.738603 158.84441433 25.72680578 145.19775029 C25.71438283 131.18888558 25.68685564 117.18010889 25.64538693 103.17129976 C25.62028423 94.53118728 25.60688036 85.89122083 25.60857043 77.25107137 C25.60860024 71.32146688 25.59392258 65.39201084 25.56783572 59.46246424 C25.55322743 56.04438388 25.54495412 52.62660794 25.55419731 49.20850182 C25.56084482 45.49420237 25.54289625 41.7807848 25.51898193 38.0665741 C25.52674235 36.99747698 25.53450277 35.92837987 25.54249835 34.82688588 C25.42861153 24.80171614 22.96553375 16.02373341 15.92578125 8.65234375 C11.29198633 4.67649131 5.79217666 2.737653 0 1 C0 0.67 0 0.34 0 0 Z " fill="#404242" transform="translate(455,11)"/>
<path d="M0 0 C148.5 0 297 0 450 0 C450 81.84 450 163.68 450 248 C301.5 248 153 248 0 248 C0 247.67 0 247.34 0 247 C138.27 247 276.54 247 419 247 C419 165.82 419 84.64 419 1 C280.73 1 142.46 1 0 1 C0 0.67 0 0.34 0 0 Z " fill="#4D88D3" transform="translate(31,42)"/>
<path d="M0 0 C29.04 0 58.08 0 88 0 C89.98 5.61 91.96 11.22 94 17 C99.93507249 27.68313049 107.92583938 34.06539993 119 39 C120.32 39.66 121.64 40.32 123 41 C69.87 41 16.74 41 -38 41 C-38 40.67 -38 40.34 -38 40 C-37.16597656 39.78085937 -36.33195313 39.56171875 -35.47265625 39.3359375 C-28.87152076 37.47582372 -23.4295333 35.46218782 -17.90234375 31.3671875 C-16 30 -16 30 -13.87890625 29.0703125 C-11.48913071 27.70898506 -11.08003884 26.49588808 -10 24 C-9.04341255 22.54052087 -8.08492071 21.08228896 -7.125 19.625 C-3.11611652 12.90987705 -3.11611652 12.90987705 0 0 Z " fill="#ACABA6" transform="translate(196,444)"/>
<path d="M0 0 C168.96 0 337.92 0 512 0 C512 75.52282378 512 75.52282378 502.91015625 85.2109375 C492.35576362 95.09623776 479.49319364 94.28015139 465.875 94.125 C464.33073499 94.11494704 462.78646362 94.10582529 461.2421875 94.09765625 C457.49465751 94.07583336 453.74737054 94.04143206 450 94 C450 93.67 450 93.34 450 93 C450.85722656 92.84144531 451.71445312 92.68289063 452.59765625 92.51953125 C459.66092125 91.07821111 464.43661345 89.57434005 470 85 C470.66 85 471.32 85 472 85 C472.2475 84.46375 472.495 83.9275 472.75 83.375 C474 81 474 81 476 78.125 C489.88726387 56.4261502 480.62118358 26.75951627 481 1 C322.27 1 163.54 1 0 1 C0 0.67 0 0.34 0 0 Z " fill="#AAA9A4" transform="translate(0,320)"/>
<path d="M0 0 C3.8957689 2.18616935 5.98575793 4.1887161 7.8125 8.375 C8.58306368 13.76091904 8.51505384 17.96989231 6.0625 22.875 C2.69093125 26.6211875 -0.08048011 29.01399388 -5.23828125 29.61328125 C-10.76114901 29.79451525 -13.88821475 29.17436836 -18.1875 25.375 C-21.61667072 21.67510527 -22.48719749 18.7957651 -22.6875 13.875 C-22.48029901 8.94896351 -21.67564876 6.04202818 -18.1875 2.375 C-12.40000253 -2.19483092 -6.85874664 -3.02292908 0 0 Z " fill="#FEFEFD" transform="translate(263.1875,352.625)"/>
</svg>
